<svg xmlns="http://www.w3.org/2000/svg" width="38" height="24" viewBox="0 0 38 24"><defs><style>.cls-1{fill:#0c498d;fill-rule:evenodd;filter:url(#filter)}</style><filter id="filter" x="997" y="908" width="38" height="24" filterUnits="userSpaceOnUse"><feFlood result="flood" flood-color="#fff"/><feComposite result="composite" operator="in" in2="SourceGraphic"/><feBlend result="blend" in2="SourceGraphic"/></filter></defs><path id="シェイプ_39" data-name="シェイプ 39" class="cls-1" d="M1030.35 908.109c-1.81-.182-10.5-.106-18.17-.038-4.97.045-9.67.086-10.7.034a4.021 4.021 0 0 0-2.963.991 4.256 4.256 0 0 0-.707.833 1.007 1.007 0 0 0-.255.229.947.947 0 0 0-.193.641 5.006 5.006 0 0 0-.366 1.74v16.509a3.047 3.047 0 0 0 3.124 2.957h31.76a3.048 3.048 0 0 0 3.13-2.957v-16.509c0-1.369-.98-4.057-4.66-4.43zm-29.13 1.961h.15c1.09.055 5.61.016 10.83-.031 7.24-.064 16.24-.145 17.92.026a3.641 3.641 0 0 1 1.76.6l-15.91 10.981-16.057-11.08.037-.038a1.816 1.816 0 0 1 1.27-.458zm31.7 18.978a1.011 1.011 0 0 1-1.04.985h-31.76a1.015 1.015 0 0 1-1.041-.985v-16.614l10.836 7.478-7.83 5.641a.957.957 0 0 0-.2 1.382 1.078 1.078 0 0 0 .83.388 1.055 1.055 0 0 0 .63-.2l8.33-6 3.71 2.561c.03.023.07.032.1.051l.34.442.55-.379a1.061 1.061 0 0 0 .43-.292l3.31-2.285 8.55 6.165a1.071 1.071 0 0 0 .63.2 1.049 1.049 0 0 0 .83-.388.95.95 0 0 0-.2-1.383l-8.06-5.807 11.04-7.62a1.21 1.21 0 0 1 .01.149v16.509z" transform="translate(-997 -908)"/></svg>