<svg xmlns="http://www.w3.org/2000/svg" width="52" height="22" viewBox="0 0 52 22"><defs><style>.cls-1{fill:#1b1b1b;fill-rule:evenodd}</style></defs><path id="logo" class="cls-1" d="M214.96 4395.33a6.422 6.422 0 0 0-6.511-6.32h-18.557V4411h6.661v-15.67a1.271 1.271 0 0 1 2.54 0V4411h6.664v-15.67a1.27 1.27 0 0 1 2.539 0V4411h6.666v-15.67m6.093-6.33h-3.581v22h6.521v-19.14a2.9 2.9 0 0 0-2.94-2.86M172 4398.2v12.8h6.516v-12.8a2.9 2.9 0 0 1 2.939-2.86h5.882v-6.33h-5.882a9.335 9.335 0 0 0-9.455 9.19m11.436 1.08a3.711 3.711 0 1 0 3.813 3.71 3.763 3.763 0 0 0-3.813-3.71" transform="translate(-172 -4389)"/></svg>