<svg xmlns="http://www.w3.org/2000/svg" viewBox="0 0 749.47 153.31"><defs><style>.cls-1{opacity:0.2;}.cls-2,.cls-3{fill:#fff;}.cls-3{fill-rule:evenodd;}</style></defs><g id="レイヤー_2" data-name="レイヤー 2"><g id="レイヤー_2-2" data-name="レイヤー 2"><g class="cls-1"><rect class="cls-2" width="32.76" height="153.3"/><rect class="cls-2" x="224.56" width="32.76" height="153.3"/><polygon class="cls-3" points="749.47 0 712.86 0 686.71 45.1 660.55 0 623.94 0 668.4 76.65 623.94 153.31 660.55 153.31 686.71 108.21 712.86 153.31 749.47 153.31 705.01 76.65 749.47 0"/><polygon class="cls-3" points="390.01 0 390.01 96.42 334.47 0 329.61 0 297.31 0 296.85 0 296.85 153.31 329.61 153.31 329.61 56.09 385.61 153.31 390.01 153.31 422.77 153.31 422.77 0 390.01 0"/><polygon class="cls-3" points="195.93 153.31 159.02 153.31 129.51 102.3 129.43 102.16 129.51 102.02 158.93 51.15 148.3 32.77 102.48 32.77 102.48 153.31 69.73 153.31 69.73 0 166.26 0 185.21 32.77 195.77 51.01 195.84 51.15 195.77 51.29 166.35 102.16 195.93 153.31"/><polygon class="cls-3" points="195.93 51.29 195.77 51.29 195.84 51.15 195.93 51.29"/><polygon class="cls-3" points="129.43 102.16 129.51 102.3 129.35 102.3 129.43 102.16"/><polygon class="cls-3" points="195.93 51.01 195.84 51.15 195.77 51.01 195.93 51.01"/><polygon class="cls-3" points="129.51 102.02 129.43 102.16 129.35 102.02 129.51 102.02"/><path class="cls-3" d="M626.14,76.44,582.77,0H493.21L449.58,76.44l-.07.14.07.14,43.63,76.58h89.56l43.37-76.58.08-.14Zm-62.26,44.1h-52l-25.43-44,25.35-43.81H564L589.3,76.58Z"/><polygon class="cls-3" points="448.12 69.39 448.19 69.53 448.03 69.53 448.12 69.39"/><polygon class="cls-3" points="448.19 69.25 448.12 69.39 448.03 69.25 448.19 69.25"/></g></g></g></svg>