<svg xmlns="http://www.w3.org/2000/svg" viewBox="0 0 37.49 32.52"><defs><style>.cls-1{fill:#10314e;fill-rule:evenodd;}.cls-2{fill:#fff;}</style></defs><g id="レイヤー_2" data-name="レイヤー 2"><g id="レイヤー_2-2" data-name="レイヤー 2"><polygon class="cls-1" points="9.56 32.02 0.58 16.29 0.69 16.02 9.56 0.5 27.99 0.5 36.91 16.21 36.8 16.48 27.99 32.02 9.56 32.02"/><path class="cls-2" d="M27.7,1l8.64,15.22,0,0,0,0L27.7,31.52H9.85L1.15,16.28v-.06L9.85,1H27.7m.58-1h-19L9,.5.28,15.72h0l0,0L0,16.25l.26.47h0l0,0L9,32l.29.5h19l.29-.5,8.64-15.25h0l0,0,.25-.47-.25-.47h0l0,0L28.57.51,28.28,0Z"/><path class="cls-2" d="M20.51,23.84H18.12v-11H16.44V10.52h4.07Z"/></g></g></svg>