<svg xmlns="http://www.w3.org/2000/svg" viewBox="0 0 37.49 32.52"><defs><style>.cls-1{fill:#10314e;fill-rule:evenodd;}.cls-2{fill:#fff;}</style></defs><g id="レイヤー_2" data-name="レイヤー 2"><g id="レイヤー_2-2" data-name="レイヤー 2"><polygon class="cls-1" points="9.56 32.02 0.58 16.29 0.69 16.02 9.56 0.5 27.99 0.5 36.91 16.21 36.8 16.48 27.99 32.02 9.56 32.02"/><path class="cls-2" d="M27.7,1l8.64,15.22,0,0,0,0L27.7,31.52H9.85L1.15,16.28v-.06L9.85,1H27.7m.58-1h-19L9,.5.28,15.72h0l0,0L0,16.25l.26.47h0l0,0L9,32l.29.5h19l.29-.5,8.64-15.25h0l0,0,.25-.47-.25-.47h0l0,0L28.57.51,28.28,0Z"/><path class="cls-2" d="M23.07,23.84H14.45V21.57l4.6-4.26a7.09,7.09,0,0,0,1.31-1.52,2.56,2.56,0,0,0,.31-1.24,1.9,1.9,0,0,0-.53-1.39,1.82,1.82,0,0,0-1.38-.55,1.76,1.76,0,0,0-1.53.73,2.92,2.92,0,0,0-.53,1.79H14.3v-.5a4.25,4.25,0,0,1,1.27-3.07,4.12,4.12,0,0,1,3-1.29,4.41,4.41,0,0,1,3.18,1.25,4.42,4.42,0,0,1,1,4.64A5.34,5.34,0,0,1,22,17.54l-1.68,1.77-2.54,2.26h5.28Z"/></g></g></svg>