<svg xmlns="http://www.w3.org/2000/svg" viewBox="0 0 37.49 32.52"><defs><style>.cls-1{fill:#10314e;fill-rule:evenodd;}.cls-2{fill:#fff;}</style></defs><g id="レイヤー_2" data-name="レイヤー 2"><g id="レイヤー_2-2" data-name="レイヤー 2"><polygon class="cls-1" points="9.56 32.02 0.58 16.29 0.69 16.02 9.56 0.5 27.99 0.5 36.91 16.21 36.8 16.48 27.99 32.02 9.56 32.02"/><path class="cls-2" d="M27.7,1l8.64,15.22,0,0,0,0L27.7,31.52H9.85L1.15,16.28v-.06L9.85,1H27.7m.58-1h-19L9,.5.28,15.72h0l0,0L0,16.25l.26.48h0l0,0L9,32l.29.5h19l.29-.5,8.64-15.25h0l0,0,.25-.47-.25-.47h0l0,0L28.57.51,28.28,0Z"/><path class="cls-2" d="M23,19.75a4.07,4.07,0,0,1-1.36,3.15,4.68,4.68,0,0,1-3.28,1.25,4.39,4.39,0,0,1-3.11-1.25,4,4,0,0,1-1.32-3h2.39A1.7,1.7,0,0,0,17,21.26a2.27,2.27,0,0,0,1.53.55A2.07,2.07,0,0,0,20,21.2a2,2,0,0,0,.62-1.47A1.86,1.86,0,0,0,20,18.08a3.13,3.13,0,0,0-1.12-.53,6,6,0,0,0-1-.08H17.6V15.2h.16a2.93,2.93,0,0,0,1.39-.29,1.18,1.18,0,0,0,.52-1.11,1.12,1.12,0,0,0-.36-.87,1.32,1.32,0,0,0-.9-.32,1,1,0,0,0-.78.32,1.16,1.16,0,0,0-.3.81h-2.4a3.52,3.52,0,0,1,3.48-3.47,3.61,3.61,0,0,1,2.56,1,3.31,3.31,0,0,1,1.09,2.51,3.23,3.23,0,0,1-.28,1.37,2.26,2.26,0,0,1-.87,1,2.79,2.79,0,0,1,1.57,1.36A4.39,4.39,0,0,1,23,19.75Z"/></g></g></svg>