<svg xmlns="http://www.w3.org/2000/svg" width="107.38" height="46.031" viewBox="0 0 107.38 46.031"><defs><style>.cls-1{fill:#0c498d;fill-rule:evenodd}</style></defs><path id="logo" class="cls-1" d="M1138.07 35.246a13.349 13.349 0 0 0-13.44-13.228h-38.33v46.01h13.76V35.246a2.62 2.62 0 0 1 5.24 0v32.782h13.77V35.246a2.62 2.62 0 0 1 5.24 0v32.782h13.77s0-29.512-.01-31.558v-1.224M1150.66 22h-7.4v46.028h13.47V27.974a6.029 6.029 0 0 0-6.07-5.974m-101.32 19.24v26.788h13.46V41.239a6.027 6.027 0 0 1 6.07-5.974h12.15V22.022h-12.15a19.4 19.4 0 0 0-19.53 19.218m23.62 2.276a7.755 7.755 0 1 0 7.88 7.754 7.821 7.821 0 0 0-7.88-7.754" transform="translate(-1049.34 -22)"/></svg>