<svg xmlns="http://www.w3.org/2000/svg" viewBox="0 0 743.21 126.74"><defs><style>.cls-1,.cls-2{fill:#10314e;}.cls-2{fill-rule:evenodd;}</style></defs><g id="レイヤー_2" data-name="レイヤー 2"><g id="レイヤー_2-2" data-name="レイヤー 2"><path class="cls-1" d="M24.29,102.67c2.91,8.58,8.23,15.49,16.46,18.83a21,21,0,0,0-3.87,4.93c-8-3.74-13.07-10.16-16.5-18.66A30.31,30.31,0,0,1,3.92,126.48,15.49,15.49,0,0,0,0,122c10.08-4.49,14.26-11.79,16-19.36H.84V97.26h16c.44-4.14.4-8.15.44-11.75H23c-.05,3.6-.09,7.65-.53,11.75H39.78v5.41Z"/><path class="cls-1" d="M58.61,120a72.33,72.33,0,0,0-4.4-6.33C53.11,118.33,51,122.78,47,126a19,19,0,0,0-3.57-3.74c4.84-3.56,6.38-9.59,6.82-15.14h-6.2v-4.75h6.38V96.81H44.75V92.19h5.72V85.9h4.88v6.29h5.5v4.62h-5.5v5.55h6.21v4.75H55.18l-.09,1.06c1.85,1.89,6.07,6.73,7,8ZM80,121.15c.71,0,.88-.57,1-5.19a14.65,14.65,0,0,0,4.31,1.89c-.44,6.25-1.62,7.83-4.75,7.83h-2.9c-3.88,0-4.71-1.45-4.71-5.76v-7.66H70.62c-.74,6.47-2.72,11.4-10.47,14.35a14,14,0,0,0-2.82-3.92c6.43-2.16,7.79-5.76,8.37-10.43H62.88V87H82.42v25.26H77.71v7.57c0,1.19.09,1.32.75,1.32ZM67.72,94.22h9.64v-2.6H67.72Zm0,6.73h9.64V98.36H67.72Zm0,6.69h9.64V105H67.72Z"/><path class="cls-1" d="M100.15,111.69c-.49-1.28-1.32-3.13-2.25-5v19.8h-5V111.65a37.27,37.27,0,0,1-3.26,7,36.3,36.3,0,0,0-2.51-5.28c2.42-3.17,4.54-8.76,5.77-13.73V98.49H88.18V93.65h4.75V85.46h5v8.19h4v4.79h-4V100c1.32,1.76,4.58,6.78,5.37,8.06Zm20.24,5.68a15.18,15.18,0,0,0,8.84,4.79,19.48,19.48,0,0,0-3.21,4.32,16.23,16.23,0,0,1-10.47-8.19c-1.85,3.78-5.41,6.51-12.68,8.27a14.12,14.12,0,0,0-2.64-4.18c5.5-1.1,8.41-2.73,10-5h-8.41v-4.32h10.08c.13-.79.26-1.62.35-2.5h-8.4V96h22v14.53h-8.45c-.09.88-.22,1.67-.35,2.5h11v4.32ZM107.8,92.77h-5.15V88.45h5.15V85.51h5v2.94h5.1V85.51H123v2.94h4.93v4.32H123v2.5h-5.1v-2.5h-5.1v2.5h-5Zm.93,8.8h12.1V99.63h-12.1Zm0,5.32h12.1V105h-12.1Z"/><path class="cls-1" d="M172.35,118.25v5.28h-40v-5.28h16.77V95.49H134.73V90h35.16v5.45H155.1v22.76Z"/><path class="cls-1" d="M199.28,107.51c-.35.7-.79,1.41-1.23,2.11h17.86s0,1.19-.08,1.81c-.62,8.58-1.32,12.1-2.51,13.37a4.13,4.13,0,0,1-2.91,1.5,27.56,27.56,0,0,1-4.44.09,10.52,10.52,0,0,0-1.19-4.1,30.52,30.52,0,0,0,3.12.14,1.49,1.49,0,0,0,1.32-.49c.62-.66,1.15-2.9,1.63-8.23h-1.71c-1.81,4.93-5.24,10.26-8.8,13a14.38,14.38,0,0,0-3.7-2.9c3.34-2.12,6.29-6,8.18-10.13h-2.59a33.57,33.57,0,0,1-10.3,11.05,15.68,15.68,0,0,0-3.43-3.08,26.68,26.68,0,0,0,9-8h-2.65a27.33,27.33,0,0,1-5.1,4.32A17.84,17.84,0,0,0,186.3,115c-3.17,1.58-6.34,3.16-9,4.48l-1.94-5.28c1.5-.57,3.34-1.32,5.41-2.15V99.59h-4.4V94.66h4.4V86h4.84v8.67h4.14v4.93h-4.14V110l3.52-1.54.93,3.74a21.34,21.34,0,0,0,4.05-4.66h-5v-4.4h27.68v4.4Zm14.52-6.07H193V86.56H213.8ZM209,90.17H197.61v2.11H209Zm0,5.55H197.61v2.11H209Z"/><path class="cls-1" d="M225.72,92.41c3.65-.3,10.87-1,18.84-1.67,4.48-.35,9.24-.61,12.32-.75l0,5.64a44.78,44.78,0,0,0-8.4.57c-5.28,1.41-9.2,7-9.2,12.19,0,7.17,6.69,9.77,14.08,10.12l-2,6c-9.16-.57-17.78-5.5-17.78-15A17.3,17.3,0,0,1,240,96.15c-3.78.4-12.94,1.37-18,2.47l-.57-6C223.21,92.59,224.88,92.5,225.72,92.41Zm28.6,13.43L251,107.33a33.77,33.77,0,0,0-3.43-6.11l3.25-1.37A56.62,56.62,0,0,1,254.32,105.84Zm5.11-2.16-3.3,1.58a39.2,39.2,0,0,0-3.61-5.94l3.21-1.49A64.35,64.35,0,0,1,259.43,103.68Z"/><path class="cls-1" d="M297.09,103.42c2.91,3.69,4.23,6.77,4.23,10.47,0,6.56-5.9,11.31-15.45,11.31-6.86,0-11.7-3-11.7-10.25,0-1.06.13-2.6.3-4.4a49.11,49.11,0,0,1-8.36-1.46l.31-5.28a37.42,37.42,0,0,0,8.58,1.72c.27-1.94.49-4,.75-5.94a55.05,55.05,0,0,1-8.67-1.54l.31-5.06a40.5,40.5,0,0,0,8.93,1.62c.18-1.32.27-2.5.35-3.47a26.82,26.82,0,0,0,.09-3.87l6.12.35c-.35,1.58-.57,2.73-.75,3.87-.13.75-.26,1.89-.48,3.3a62.89,62.89,0,0,0,8-.53l-.18,5.2a79.29,79.29,0,0,1-8.49.39c-.27,1.94-.53,4-.75,5.94h.31a85.83,85.83,0,0,0,8.75-.53l-.13,5.2c-2.46.22-5,.39-7.7.39h-1.76c-.09,1.28-.18,2.38-.18,3.17,0,3.57,2.2,5.55,6.52,5.55,6.07,0,9.41-2.78,9.41-6.38,0-3-1.67-5.77-4.48-8.45Z"/><path class="cls-1" d="M347.17,97.61c-2.64-.13-6.74-.22-12.63-.22,0,2.2,0,4.57,0,6.47a10.73,10.73,0,0,1,1.63,6c0,5.67-3.35,12.89-14,15.88l-4.62-4.66c4.4-.93,8.23-2.38,10.65-5a8.83,8.83,0,0,1-2,.22,7.67,7.67,0,0,1-7.52-8c0-4.93,4-8.15,8.71-8.15a10.24,10.24,0,0,1,1.72.14l-.05-2.91c-6.6.09-13.33.35-18.7.66l-.13-5.28c5,0,12.89-.22,18.75-.31a9.84,9.84,0,0,0-.05-1.32,31,31,0,0,0-.39-3.78h6.33c-.13.7-.26,3-.31,3.74,0,.35,0,.79,0,1.32,4.4,0,10.34,0,12.63,0Zm-19.85,13.9c1.8,0,3.43-1.36,2.86-5.15a3.13,3.13,0,0,0-2.86-1.54,3.35,3.35,0,1,0,0,6.69Z"/><path class="cls-1" d="M381.79,91.14c-1.41,1-2.81,2.15-3.87,3-2.82,2.29-8.54,6.73-11.44,9.24-2.33,2-2.29,2.46,0,4.49,3.3,2.77,11.66,9.41,16,13.59l-5.06,4.67c-1.19-1.36-2.56-2.73-3.79-4-2.42-2.51-9.06-8.18-13-11.57-4.36-3.66-4-6.08.35-9.68,3.43-2.78,9.37-7.62,12.32-10.52a27.18,27.18,0,0,0,3.34-3.65Zm1,12.67-3.61,1.54a74.33,74.33,0,0,0-3.61-6.64l3.52-1.41C380.21,98.93,381.92,102.23,382.76,103.81Zm5.37-2.11-3.57,1.5a74.14,74.14,0,0,0-3.78-6.52l3.61-1.49C385.53,96.81,387.25,100.07,388.13,101.7Z"/><path class="cls-1" d="M407.27,89.16A35.82,35.82,0,0,0,406.21,93c-.62,2.91-2.11,11.62-2.11,16a21.3,21.3,0,0,0,.17,2.82c.62-1.54,1.32-3,1.94-4.4l2.73,2.11a105.88,105.88,0,0,0-3.13,10.7,12.85,12.85,0,0,0-.26,2c0,.48,0,1.19.09,1.81l-5,.35a55.63,55.63,0,0,1-1.72-14.26c0-6.56,1.32-13.91,1.81-17.25a33.69,33.69,0,0,0,.44-4.27Zm10.21,21.52a14,14,0,0,0-.53,3.65c0,1.94,1.67,3.08,6.07,3.08a50.27,50.27,0,0,0,10.91-1.14l.13,5.89a60.28,60.28,0,0,1-11.26.88c-7.53,0-11.09-2.73-11.09-7.17a27,27,0,0,1,.75-5.68ZM432.7,92v5.63a119.12,119.12,0,0,1-18.7,0L414,92A89,89,0,0,0,432.7,92Z"/><path class="cls-1" d="M470.85,114.11h9.42v4h-9.42v3.52c0,2.33-.49,3.56-2.25,4.27s-4.09.7-7.35.7a17.43,17.43,0,0,0-1.62-4.53c2.15.13,4.57.13,5.23.09s.93-.18.93-.66v-3.39H452.72a28.64,28.64,0,0,1,4.57,3.87l-3.78,3.21a32.9,32.9,0,0,0-5.85-5.14l2.33-1.94h-9.73v-4h25.53v-1.85c-3,0-5.68,0-7.7-.09-4.45-.17-7.44-1.14-9.55-3.91-2.12,1.45-4.27,2.81-6.74,4.31L440,108.43c1.63-.79,3.57-1.76,5.42-2.81v-5.33H440.4v-4h9.81v8.54c1.45,2.42,4.09,3.39,7.83,3.52,5.33.22,16.81.09,22.89-.35a22.28,22.28,0,0,0-1.28,4c-2.33.09-5.5.18-8.8.22ZM447.39,94.48a30.7,30.7,0,0,0-5.94-5.67L444.84,86A28.67,28.67,0,0,1,451,91.36ZM462.57,94c.09-.44.23-.88.31-1.36H451.53V89.07h6.56a19.84,19.84,0,0,0-1.5-2.86l4.27-.79a18.48,18.48,0,0,1,2,3.65h6a31.71,31.71,0,0,0,1.89-3.7l4.89.75c-.66,1.1-1.32,2.11-1.94,2.95h6.47v3.52H467.68L467.11,94h9.55v13.16H455V94Zm9,2.34H459.85v1.32H471.6Zm0,3.52H459.85v1.36H471.6Zm0,3.56H459.85v1.41H471.6Z"/><path class="cls-1" d="M507.63,87.93c0,8.31,1.19,24.38,17.38,33.93a28.1,28.1,0,0,0-4.22,4.57c-9.11-5.5-13.77-13.82-16.19-21.69-3.31,9.85-8.59,17.16-16.24,21.74a42.17,42.17,0,0,0-4.8-4.27c9.15-4.62,14.39-13.12,16.81-24.69l2.68.48c-.3-1.67-.48-3.25-.61-4.75h-10V87.93Z"/><path class="cls-1" d="M546.26,88.41c-.26,1.14-.53,2.51-.75,3.61-.26,1.32-.61,2.9-.92,4.49,1.45-.09,2.77-.18,3.65-.18,4.62,0,7.88,2.07,7.88,8.32,0,5.15-.62,12.1-2.46,15.88-1.46,3-3.83,4-7.18,4a24.75,24.75,0,0,1-5.19-.62l-1-5.76a25.69,25.69,0,0,0,5.37.92,3.22,3.22,0,0,0,3.26-1.89c1.19-2.42,1.76-7.61,1.76-11.93,0-3.47-1.5-4-4.23-4-.7,0-1.76.09-3,.18-1.72,6.6-4.89,16.85-8.89,23.28l-5.68-2.29c4.23-5.72,7.22-14.43,8.76-20.37-1.54.17-2.9.35-3.74.48-1.23.13-3.48.44-4.84.66l-.48-5.9a37.48,37.48,0,0,0,4.62,0c1.36,0,3.43-.17,5.63-.35a47.38,47.38,0,0,0,.92-9.24Zm15.62,5.19A86.8,86.8,0,0,1,569,108.78l-5.54,2.6c-1.15-4.84-4.23-12.54-7.35-16.41l4-1.72a49.35,49.35,0,0,0-3-5.19l3.48-1.45c1.1,1.62,2.64,4.4,3.52,6Zm4-1.45a42.75,42.75,0,0,0-3.57-6.07l3.48-1.45a52,52,0,0,1,3.57,6Z"/><path class="cls-1" d="M612.13,93.69h-5.06v26.23c0,3.17-.75,4.71-2.81,5.59s-5.46,1-10,1a23.56,23.56,0,0,0-2.16-5.55c3.13.18,7,.13,8,.13s1.41-.31,1.41-1.23V93.69H572.48V88.41h39.65Zm-30.49,22V119h-5.11V98.62h18.66v17Zm0-12.06v7H590v-7Z"/><path class="cls-1" d="M632.68,88.37A42.87,42.87,0,0,1,638,98.58l-4.79,1.93a16.18,16.18,0,0,0-.8-2.33c-5.81.4-11.79.75-16.28,1l-.44-5c1.06,0,2.2,0,3.43-.09a68.73,68.73,0,0,0,3.22-8.84l5.45,1.1c-1,2.55-2.2,5.19-3.3,7.52l5.86-.26c-.66-1.24-1.37-2.47-2.07-3.61Zm2.2,32.87c0,2.29-.44,3.56-1.89,4.31s-3.52.88-6.16.88a19.68,19.68,0,0,0-1.68-4.62,34.64,34.64,0,0,0,3.88,0c.52,0,.7-.13.7-.66v-3h-6.6v8.32h-4.84V101.26h16.59Zm-11.75-15.67v2.29h6.6v-2.29Zm6.6,8.76v-2.6h-6.6v2.6Zm15-9.11c-5.15,0-6.39-1.54-6.39-6.38V85.59h5.2v6.3a68.48,68.48,0,0,0,7.92-3.66L654.81,92a80.58,80.58,0,0,1-11.26,4.13v2.6c0,1.59.26,1.76,1.93,1.76h4.8c1.41,0,1.72-.66,1.89-4.49A14.68,14.68,0,0,0,656.79,98c-.57,5.63-1.93,7.26-6,7.26Zm5.81,16.46c1.49,0,1.8-.84,2-5.28a16.23,16.23,0,0,0,4.58,1.93c-.58,6.21-1.9,7.93-6.12,7.93h-6.25c-5.15,0-6.43-1.5-6.43-6.34V106.1h5.15V112a49.4,49.4,0,0,0,8.28-4.14l3.47,3.83a66.31,66.31,0,0,1-11.75,4.67v3.52c0,1.54.31,1.76,2,1.76Z"/><path class="cls-1" d="M665.72,92.41c3.65-.3,10.87-1,18.84-1.67,4.48-.35,9.24-.61,12.32-.75l0,5.64a44.78,44.78,0,0,0-8.4.57c-5.29,1.41-9.2,7-9.2,12.19,0,7.17,6.69,9.77,14.08,10.12l-2,6c-9.16-.57-17.78-5.5-17.78-15A17.3,17.3,0,0,1,680,96.15c-3.78.4-12.93,1.37-18,2.47l-.57-6C663.21,92.59,664.88,92.5,665.72,92.41Zm28.6,13.43L691,107.33a33.77,33.77,0,0,0-3.43-6.11l3.25-1.37A56.62,56.62,0,0,1,694.32,105.84Zm5.11-2.16-3.3,1.58a39.2,39.2,0,0,0-3.61-5.94l3.21-1.49A64.35,64.35,0,0,1,699.43,103.68Z"/><path class="cls-1" d="M743.17,97.61c-2.65-.13-6.74-.22-12.63-.22,0,2.2,0,4.57,0,6.47a10.73,10.73,0,0,1,1.63,6c0,5.67-3.35,12.89-14,15.88l-4.62-4.66c4.4-.93,8.23-2.38,10.65-5a8.83,8.83,0,0,1-2,.22,7.67,7.67,0,0,1-7.52-8c0-4.93,4-8.15,8.71-8.15a10.24,10.24,0,0,1,1.72.14l0-2.91c-6.6.09-13.33.35-18.7.66l-.13-5.28c5,0,12.89-.22,18.74-.31a12.28,12.28,0,0,0,0-1.32,31,31,0,0,0-.39-3.78h6.33c-.13.7-.26,3-.31,3.74,0,.35,0,.79,0,1.32,4.4,0,10.34,0,12.63,0Zm-19.85,13.9c1.8,0,3.43-1.36,2.86-5.15a3.13,3.13,0,0,0-2.86-1.54,3.35,3.35,0,1,0,0,6.69Z"/><path class="cls-1" d="M511.88,42.48a47.43,47.43,0,0,1-5.51,1.09,58.31,58.31,0,0,1-6.78,13.56l-3.87-2A48.2,48.2,0,0,0,502.18,44c-.54,0-1.09,0-1.63,0-1.31,0-2.59,0-4-.09l-.29-3.71a40.41,40.41,0,0,0,4.23.22c.93,0,1.89,0,2.85-.1a27.27,27.27,0,0,0,.86-5.31l4.38.45c-.25,1-.64,2.62-1.08,4.32a35.16,35.16,0,0,0,4.25-1ZM516,45.33a39.27,39.27,0,0,0,0,4.06c0,.9.09,2.43.19,4a21,21,0,0,1,6.56,4.06l-2.11,3.39a28,28,0,0,0-4.29-3.35v.28c0,2.95-1.6,5.25-6.11,5.25-3.94,0-7-1.76-7-5.25,0-3.1,2.59-5.5,7-5.5a20.85,20.85,0,0,1,2.14.13c-.1-2.37-.26-5.15-.35-7.07Zm-3.49,10.49A11.28,11.28,0,0,0,510,55.5c-1.82,0-3,.77-3,1.89s1,2,2.72,2c2.15,0,2.85-1.24,2.85-2.94Zm8.93-8.8a42.46,42.46,0,0,0-7.62-4.51l2-3.14a58.27,58.27,0,0,1,7.81,4.29Z"/><path class="cls-1" d="M535.27,49.23a15.55,15.55,0,0,1,9.31-3c5.57,0,8.8,3.43,8.8,7.27,0,5.79-4.57,10.23-17.76,9.08l-1.21-4.16c9.5,1.35,14.52-1,14.52-5,0-2-1.95-3.55-4.73-3.55a11.12,11.12,0,0,0-8.74,3.71,6.8,6.8,0,0,0-1.18,1.86l-3.68-.93a116.85,116.85,0,0,0,1.57-13.22l4.28.58C536,43.6,535.49,47.41,535.27,49.23Zm1-13.76a100.12,100.12,0,0,0,12.67,2.46l-1,3.91c-3.2-.42-10.27-1.89-12.73-2.53Z"/><rect class="cls-1" x="186.97" width="13.06" height="61.13"/><rect class="cls-1" x="276.51" width="13.06" height="61.13"/><polygon class="cls-2" points="485.83 0 471.23 0 460.8 17.98 450.37 0 435.77 0 453.5 30.57 435.77 61.13 450.37 61.13 460.8 43.15 471.23 61.13 485.83 61.13 468.1 30.57 485.83 0"/><polygon class="cls-2" points="342.49 0 342.49 38.45 320.35 0 318.41 0 305.53 0 305.34 0 305.34 61.13 318.41 61.13 318.41 22.36 340.74 61.13 342.49 61.13 355.56 61.13 355.56 0 342.49 0"/><polygon class="cls-2" points="265.1 61.13 250.38 61.13 238.61 40.79 238.58 40.74 238.61 40.68 250.34 20.4 246.11 13.07 227.84 13.07 227.84 61.13 214.77 61.13 214.77 0 253.27 0 260.82 13.07 265.04 20.34 265.06 20.4 265.04 20.45 253.3 40.74 265.1 61.13"/><polygon class="cls-2" points="265.1 20.45 265.04 20.45 265.06 20.4 265.1 20.45"/><polygon class="cls-2" points="238.58 40.74 238.61 40.79 238.55 40.79 238.58 40.74"/><polygon class="cls-2" points="265.1 20.34 265.06 20.4 265.04 20.34 265.1 20.34"/><polygon class="cls-2" points="238.61 40.68 238.58 40.74 238.55 40.68 238.61 40.68"/><path class="cls-2" d="M436.65,30.48,419.36,0H383.65l-17.4,30.48,0,.06,0,.05,17.4,30.54h35.71l17.29-30.54,0-.05ZM411.82,48.07H391.07L380.94,30.54,391,13.07h20.82L422,30.54Z"/><polygon class="cls-2" points="365.66 27.67 365.69 27.73 365.63 27.73 365.66 27.67"/><polygon class="cls-2" points="365.69 27.62 365.66 27.67 365.63 27.62 365.69 27.62"/></g></g></svg>