<svg xmlns="http://www.w3.org/2000/svg" viewBox="0 0 432.92 186.52"><defs><style>.cls-1,.cls-2{fill:#10314e;}.cls-2{fill-rule:evenodd;}</style></defs><g id="レイヤー_2" data-name="レイヤー 2"><g id="レイヤー_2-2" data-name="レイヤー 2"><path class="cls-1" d="M90.09,102.67c2.91,8.58,8.23,15.49,16.46,18.83a21.29,21.29,0,0,0-3.87,4.93c-8-3.74-13.07-10.16-16.5-18.66a30.31,30.31,0,0,1-16.46,18.71A15.49,15.49,0,0,0,65.8,122c10.08-4.49,14.26-11.79,16-19.36H66.64V97.26h16c.44-4.14.39-8.15.44-11.75h5.72c0,3.6-.09,7.65-.53,11.75h17.29v5.41Z"/><path class="cls-1" d="M124.41,120a72.33,72.33,0,0,0-4.4-6.33c-1.1,4.7-3.21,9.15-7.17,12.36a19,19,0,0,0-3.57-3.74c4.84-3.56,6.38-9.59,6.82-15.14h-6.2v-4.75h6.38V96.81h-5.72V92.19h5.72V85.9h4.89v6.29h5.5v4.62h-5.5v5.55h6.2v4.75H121l-.09,1.06c1.85,1.89,6.07,6.73,7,8Zm21.34,1.19c.71,0,.89-.57,1-5.19a14.71,14.71,0,0,0,4.32,1.89c-.44,6.25-1.63,7.83-4.76,7.83h-2.9c-3.87,0-4.71-1.45-4.71-5.76v-7.66h-2.24c-.75,6.47-2.73,11.4-10.48,14.35a14.12,14.12,0,0,0-2.81-3.92c6.42-2.16,7.78-5.76,8.36-10.43h-2.82V87h19.54v25.26h-4.71v7.57c0,1.19.09,1.32.75,1.32ZM133.52,94.22h9.64v-2.6h-9.64Zm0,6.73h9.64V98.36h-9.64Zm0,6.69h9.64V105h-9.64Z"/><path class="cls-1" d="M166,111.69c-.49-1.28-1.32-3.13-2.25-5v19.8h-5V111.65a37.27,37.27,0,0,1-3.26,7,36.24,36.24,0,0,0-2.5-5.28c2.42-3.17,4.53-8.76,5.76-13.73V98.49H154V93.65h4.75V85.46h5v8.19h4v4.79h-4V100c1.32,1.76,4.58,6.78,5.37,8.06Zm20.24,5.68a15.17,15.17,0,0,0,8.85,4.79,19.53,19.53,0,0,0-3.22,4.32,16.23,16.23,0,0,1-10.47-8.19c-1.85,3.78-5.41,6.51-12.67,8.27a14.32,14.32,0,0,0-2.64-4.18c5.5-1.1,8.4-2.73,10-5h-8.41v-4.32h10.08c.13-.79.27-1.62.35-2.5h-8.4V96h22v14.53h-8.45c-.09.88-.22,1.67-.35,2.5h11v4.32ZM173.6,92.77h-5.14V88.45h5.14V85.51h5v2.94h5.1V85.51h5.11v2.94h4.93v4.32h-4.93v2.5h-5.11v-2.5h-5.1v2.5h-5Zm.93,8.8h12.1V99.63h-12.1Zm0,5.32h12.1V105h-12.1Z"/><path class="cls-1" d="M238.16,118.25v5.28h-40v-5.28h16.77V95.49H200.53V90h35.16v5.45H220.91v22.76Z"/><path class="cls-1" d="M265.08,107.51c-.35.7-.79,1.41-1.23,2.11h17.87s-.05,1.19-.09,1.81c-.62,8.58-1.32,12.1-2.51,13.37a4.13,4.13,0,0,1-2.91,1.5,27.56,27.56,0,0,1-4.44.09,10.52,10.52,0,0,0-1.19-4.1,30.59,30.59,0,0,0,3.13.14,1.51,1.51,0,0,0,1.32-.49c.61-.66,1.14-2.9,1.62-8.23h-1.71c-1.81,4.93-5.24,10.26-8.8,13a14.38,14.38,0,0,0-3.7-2.9c3.35-2.12,6.29-6,8.19-10.13H268a33.57,33.57,0,0,1-10.3,11.05,15.46,15.46,0,0,0-3.43-3.08,26.59,26.59,0,0,0,9-8h-2.64a27.39,27.39,0,0,1-5.11,4.32A17.84,17.84,0,0,0,252.1,115c-3.17,1.58-6.34,3.16-9,4.48l-1.94-5.28c1.5-.57,3.35-1.32,5.41-2.15V99.59h-4.4V94.66h4.4V86h4.85v8.67h4.13v4.93H251.4V110l3.52-1.54.92,3.74a21.34,21.34,0,0,0,4-4.66h-5v-4.4H282.6v4.4Zm14.52-6.07H258.79V86.56H279.6Zm-4.84-11.27H263.41v2.11h11.35Zm0,5.55H263.41v2.11h11.35Z"/><path class="cls-1" d="M291.52,92.41c3.66-.3,10.87-1,18.84-1.67,4.49-.35,9.24-.61,12.32-.75l0,5.64a44.78,44.78,0,0,0-8.4.57c-5.28,1.41-9.2,7-9.2,12.19,0,7.17,6.69,9.77,14.08,10.12l-2,6c-9.16-.57-17.78-5.5-17.78-15a17.33,17.33,0,0,1,6.42-13.43c-3.78.4-12.93,1.37-18,2.47l-.58-6C289,92.59,290.69,92.5,291.52,92.41Zm28.61,13.43-3.35,1.49a33.77,33.77,0,0,0-3.43-6.11l3.26-1.37A60.27,60.27,0,0,1,320.13,105.84Zm5.1-2.16-3.3,1.58a39.2,39.2,0,0,0-3.61-5.94l3.21-1.49A62.24,62.24,0,0,1,325.23,103.68Z"/><path class="cls-1" d="M362.89,103.42c2.91,3.69,4.23,6.77,4.23,10.47,0,6.56-5.9,11.31-15.45,11.31-6.86,0-11.7-3-11.7-10.25,0-1.06.13-2.6.31-4.4a49.24,49.24,0,0,1-8.37-1.46l.31-5.28a37.42,37.42,0,0,0,8.58,1.72c.27-1.94.49-4,.75-5.94a55.26,55.26,0,0,1-8.67-1.54l.31-5.06a40.61,40.61,0,0,0,8.93,1.62c.18-1.32.27-2.5.36-3.47a28.45,28.45,0,0,0,.08-3.87l6.12.35c-.35,1.58-.57,2.73-.75,3.87-.13.75-.26,1.89-.48,3.3a62.89,62.89,0,0,0,8-.53l-.18,5.2a79.16,79.16,0,0,1-8.49.39c-.27,1.94-.53,4-.75,5.94h.31a86,86,0,0,0,8.76-.53l-.14,5.2c-2.46.22-5,.39-7.7.39h-1.76c-.09,1.28-.17,2.38-.17,3.17,0,3.57,2.2,5.55,6.51,5.55,6.07,0,9.42-2.78,9.42-6.38,0-3-1.68-5.77-4.49-8.45Z"/><path class="cls-1" d="M36.88,157.56c-2.64-.13-6.74-.22-12.63-.22,0,2.2,0,4.58,0,6.47a10.75,10.75,0,0,1,1.63,6c0,5.68-3.34,12.89-14,15.89L7.3,181.06c4.41-.92,8.23-2.37,10.65-5a9.45,9.45,0,0,1-2,.22,7.68,7.68,0,0,1-7.52-8c0-4.93,4-8.14,8.71-8.14a10.28,10.28,0,0,1,1.72.13l-.05-2.9c-6.6.09-13.33.35-18.7.66L0,152.77c5,0,12.89-.22,18.75-.31a9.84,9.84,0,0,0-.05-1.32,31.44,31.44,0,0,0-.39-3.79h6.33c-.13.71-.26,3-.3,3.74,0,.36-.05.8-.05,1.32,4.4,0,10.34,0,12.63,0ZM17,171.47c1.8,0,3.43-1.36,2.86-5.15A3.11,3.11,0,0,0,17,164.78a3.35,3.35,0,0,0,0,6.69Z"/><path class="cls-1" d="M71.5,151.09c-1.4,1-2.81,2.16-3.87,2.95-2.82,2.29-8.54,6.74-11.44,9.24-2.33,2-2.29,2.47,0,4.49,3.3,2.78,11.66,9.42,16,13.6L67.15,186c-1.19-1.37-2.56-2.73-3.79-4-2.42-2.51-9.06-8.19-13-11.58-4.36-3.65-4-6.07.35-9.68,3.43-2.77,9.37-7.61,12.32-10.52a26.58,26.58,0,0,0,3.34-3.65Zm1,12.68-3.61,1.54a73.13,73.13,0,0,0-3.61-6.65l3.53-1.4A73.25,73.25,0,0,1,72.47,163.77Zm5.37-2.11-3.56,1.49c-1-1.85-2.56-4.79-3.79-6.51l3.61-1.5C75.24,156.77,77,160,77.84,161.66Z"/><path class="cls-1" d="M97,149.11A35.36,35.36,0,0,0,95.92,153c-.62,2.9-2.11,11.61-2.11,16a21.4,21.4,0,0,0,.17,2.82c.62-1.54,1.32-3,1.94-4.4l2.73,2.11a105.8,105.8,0,0,0-3.13,10.69,13.11,13.11,0,0,0-.26,2c0,.48,0,1.19.09,1.8l-5,.35a55.62,55.62,0,0,1-1.71-14.25c0-6.56,1.32-13.91,1.8-17.25a32.12,32.12,0,0,0,.44-4.27Zm10.21,21.52a14.06,14.06,0,0,0-.53,3.66c0,1.93,1.67,3.08,6.07,3.08a50.28,50.28,0,0,0,10.91-1.15l.14,5.9a60.48,60.48,0,0,1-11.27.88c-7.52,0-11.09-2.73-11.09-7.17a26.81,26.81,0,0,1,.75-5.68ZM122.41,152v5.64a121.6,121.6,0,0,1-18.7,0l0-5.64A88.21,88.21,0,0,0,122.41,152Z"/><path class="cls-1" d="M160.56,174.07H170v4h-9.42v3.52c0,2.33-.48,3.56-2.24,4.27s-4.1.7-7.35.7a17.46,17.46,0,0,0-1.63-4.53c2.15.13,4.58.13,5.24.08s.92-.17.92-.66V178H142.43A28.68,28.68,0,0,1,147,181.9l-3.79,3.21a32.92,32.92,0,0,0-5.85-5.15L139.7,178H130v-4H155.5v-1.85c-2.95,0-5.68-.05-7.7-.09-4.45-.18-7.44-1.15-9.55-3.92-2.11,1.46-4.27,2.82-6.73,4.32l-1.77-4.14c1.63-.79,3.57-1.76,5.42-2.82v-5.32h-5.06v-4h9.81v8.53c1.45,2.42,4.09,3.39,7.83,3.53,5.33.22,16.81.08,22.89-.36a22.39,22.39,0,0,0-1.28,4c-2.33.09-5.5.17-8.8.22ZM137.1,154.44a30.72,30.72,0,0,0-5.94-5.68l3.39-2.86a28.94,28.94,0,0,1,6.12,5.41Zm15.19-.53c.08-.44.22-.88.3-1.36H141.24V149h6.56a19.33,19.33,0,0,0-1.5-2.86l4.27-.8a18.56,18.56,0,0,1,2,3.66h6a31.87,31.87,0,0,0,1.9-3.7l4.88.75c-.66,1.1-1.32,2.11-1.94,2.95h6.47v3.52H157.39l-.57,1.36h9.55v13.16H144.72V153.91Zm9,2.33H149.56v1.32h11.75Zm0,3.52H149.56v1.37h11.75Zm0,3.57H149.56v1.41h11.75Z"/><path class="cls-1" d="M197.34,147.88c0,8.32,1.19,24.38,17.39,33.93a27.4,27.4,0,0,0-4.23,4.58c-9.11-5.5-13.77-13.82-16.19-21.7-3.3,9.86-8.59,17.17-16.24,21.74a42.28,42.28,0,0,0-4.8-4.27c9.15-4.62,14.39-13.11,16.81-24.68l2.69.48c-.31-1.67-.49-3.26-.62-4.75h-10v-5.33Z"/><path class="cls-1" d="M236,148.37c-.26,1.14-.52,2.5-.74,3.6-.27,1.32-.62,2.91-.93,4.49,1.45-.08,2.77-.17,3.65-.17,4.63,0,7.88,2.07,7.88,8.31,0,5.15-.62,12.11-2.46,15.89-1.45,3-3.83,4-7.18,4a24.83,24.83,0,0,1-5.19-.62l-1-5.77a25.24,25.24,0,0,0,5.37.93,3.22,3.22,0,0,0,3.26-1.89c1.19-2.42,1.76-7.62,1.76-11.93,0-3.48-1.5-4-4.23-4-.7,0-1.76.09-3,.18-1.71,6.6-4.88,16.85-8.89,23.28l-5.67-2.29c4.22-5.72,7.21-14.44,8.75-20.38-1.54.18-2.9.35-3.74.49-1.23.13-3.47.44-4.84.66l-.48-5.9a41.88,41.88,0,0,0,4.62,0c1.36,0,3.43-.18,5.63-.35a47.53,47.53,0,0,0,.92-9.24Zm15.63,5.19a86.06,86.06,0,0,1,7.08,15.18l-5.54,2.6c-1.15-4.84-4.23-12.54-7.35-16.42l4.05-1.71a46.92,46.92,0,0,0-3-5.2l3.48-1.45c1.1,1.63,2.64,4.4,3.52,6Zm4-1.45A43.77,43.77,0,0,0,252,146l3.47-1.45a52,52,0,0,1,3.57,6Z"/><path class="cls-1" d="M301.84,153.65h-5.06v26.22c0,3.17-.74,4.71-2.81,5.59s-5.46,1-10,1a23.72,23.72,0,0,0-2.15-5.54c3.12.17,6.95.13,8,.13s1.4-.31,1.4-1.23V153.65H262.2v-5.28h39.64Zm-30.49,22V179h-5.11V158.58H284.9v17Zm0-12.06v7h8.36v-7Z"/><path class="cls-1" d="M322.39,148.32a42.69,42.69,0,0,1,5.32,10.21l-4.79,1.94a16.46,16.46,0,0,0-.79-2.33c-5.81.39-11.8.74-16.29,1l-.44-5c1.06,0,2.2-.05,3.44-.09a70.3,70.3,0,0,0,3.21-8.85l5.45,1.1c-1,2.55-2.2,5.19-3.3,7.53l5.86-.27c-.66-1.23-1.37-2.46-2.07-3.61Zm2.2,32.87c0,2.29-.44,3.57-1.89,4.32s-3.52.88-6.16.88a19.52,19.52,0,0,0-1.68-4.62,37.27,37.27,0,0,0,3.88,0c.53,0,.7-.14.7-.66v-3h-6.6v8.32H308V161.22h16.59Zm-11.75-15.66v2.29h6.6v-2.29Zm6.6,8.76v-2.6h-6.6v2.6Zm15-9.11c-5.15,0-6.38-1.54-6.38-6.38V145.55h5.19v6.29a68.57,68.57,0,0,0,7.92-3.65l3.35,3.78a79.94,79.94,0,0,1-11.27,4.14v2.6c0,1.58.26,1.76,1.94,1.76H340c1.41,0,1.72-.66,1.89-4.49a14.68,14.68,0,0,0,4.62,1.94c-.57,5.63-1.93,7.26-6,7.26Zm5.81,16.45c1.49,0,1.8-.83,2-5.28a16,16,0,0,0,4.58,1.94c-.57,6.21-1.9,7.92-6.12,7.92h-6.25c-5.15,0-6.42-1.49-6.42-6.34V166.06h5.15V172a50,50,0,0,0,8.27-4.14l3.47,3.83a66.19,66.19,0,0,1-11.74,4.66v3.52c0,1.54.3,1.76,2,1.76Z"/><path class="cls-1" d="M355.43,152.37c3.65-.31,10.87-1,18.84-1.67,4.49-.35,9.24-.62,12.32-.75l0,5.63a45.64,45.64,0,0,0-8.4.57c-5.28,1.41-9.2,7-9.2,12.2,0,7.17,6.69,9.76,14.08,10.12l-2,6c-9.16-.58-17.78-5.51-17.78-15a17.3,17.3,0,0,1,6.42-13.42c-3.78.4-12.93,1.37-18,2.47l-.58-6C352.92,152.55,354.6,152.46,355.43,152.37ZM384,165.79l-3.35,1.5a33.86,33.86,0,0,0-3.43-6.12l3.26-1.36A59,59,0,0,1,384,165.79Zm5.1-2.15-3.3,1.58a38.71,38.71,0,0,0-3.61-5.94l3.21-1.5A64.52,64.52,0,0,1,389.14,163.64Z"/><path class="cls-1" d="M432.88,157.56c-2.64-.13-6.74-.22-12.63-.22,0,2.2,0,4.58,0,6.47a10.75,10.75,0,0,1,1.63,6c0,5.68-3.34,12.89-14,15.89l-4.63-4.67c4.41-.92,8.23-2.37,10.65-5a9.45,9.45,0,0,1-2,.22,7.68,7.68,0,0,1-7.52-8c0-4.93,4-8.14,8.71-8.14a10.28,10.28,0,0,1,1.72.13l-.05-2.9c-6.6.09-13.33.35-18.7.66l-.13-5.28c5,0,12.89-.22,18.75-.31a9.84,9.84,0,0,0-.05-1.32,31.44,31.44,0,0,0-.39-3.79h6.33c-.13.71-.26,3-.31,3.74,0,.36,0,.8,0,1.32,4.4,0,10.34,0,12.63,0ZM413,171.47c1.8,0,3.43-1.36,2.86-5.15a3.11,3.11,0,0,0-2.86-1.54,3.35,3.35,0,0,0,0,6.69Z"/><path class="cls-1" d="M358.16,42.48a47.64,47.64,0,0,1-5.5,1.09,58.31,58.31,0,0,1-6.78,13.56l-3.88-2A48.24,48.24,0,0,0,348.47,44c-.55,0-1.09,0-1.63,0-1.32,0-2.6,0-4-.09l-.29-3.71a40.23,40.23,0,0,0,4.22.22c.93,0,1.89,0,2.85-.1a27.31,27.31,0,0,0,.87-5.31l4.38.45c-.26,1-.64,2.62-1.09,4.32a34.9,34.9,0,0,0,4.26-1Zm4.16,2.85c-.09,1.34,0,2.65,0,4.06,0,.9.1,2.43.19,4a21,21,0,0,1,6.56,4.06L367,60.84a28,28,0,0,0-4.29-3.35v.28c0,2.95-1.6,5.25-6.11,5.25-3.93,0-7-1.76-7-5.25,0-3.1,2.6-5.5,7-5.5a20.68,20.68,0,0,1,2.14.13c-.09-2.37-.25-5.15-.35-7.07Zm-3.49,10.49a11.27,11.27,0,0,0-2.55-.32c-1.83,0-3,.77-3,1.89s1,2,2.72,2c2.14,0,2.84-1.24,2.84-2.94Zm8.93-8.8a42.38,42.38,0,0,0-7.61-4.51l2-3.14A57.65,57.65,0,0,1,370,43.66Z"/><path class="cls-1" d="M381.56,49.23a15.53,15.53,0,0,1,9.31-3c5.56,0,8.8,3.43,8.8,7.27,0,5.79-4.58,10.23-17.76,9.08l-1.22-4.16c9.5,1.35,14.53-1,14.53-5,0-2-2-3.55-4.74-3.55a11.1,11.1,0,0,0-8.73,3.71,6.86,6.86,0,0,0-1.19,1.86l-3.68-.93a114.6,114.6,0,0,0,1.57-13.22l4.29.58C382.32,43.6,381.78,47.41,381.56,49.23Zm1-13.76a99.44,99.44,0,0,0,12.67,2.46l-1,3.91c-3.2-.42-10.27-1.89-12.74-2.53Z"/><rect class="cls-1" x="33.25" width="13.06" height="61.13"/><rect class="cls-1" x="122.8" width="13.06" height="61.13"/><polygon class="cls-2" points="332.12 0 317.52 0 307.09 17.98 296.66 0 282.06 0 299.79 30.57 282.06 61.13 296.66 61.13 307.09 43.15 317.52 61.13 332.12 61.13 314.39 30.57 332.12 0"/><polygon class="cls-2" points="188.78 0 188.78 38.45 166.63 0 164.69 0 151.81 0 151.63 0 151.63 61.13 164.69 61.13 164.69 22.36 187.02 61.13 188.78 61.13 201.84 61.13 201.84 0 188.78 0"/><polygon class="cls-2" points="111.39 61.13 96.67 61.13 84.9 40.79 84.87 40.74 84.9 40.68 96.63 20.4 92.39 13.07 74.12 13.07 74.12 61.13 61.06 61.13 61.06 0 99.55 0 107.11 13.07 111.32 20.34 111.35 20.4 111.32 20.45 99.59 40.74 111.39 61.13"/><polygon class="cls-2" points="111.39 20.45 111.32 20.45 111.35 20.4 111.39 20.45"/><polygon class="cls-2" points="84.87 40.74 84.9 40.79 84.83 40.79 84.87 40.74"/><polygon class="cls-2" points="111.39 20.34 111.35 20.4 111.32 20.34 111.39 20.34"/><polygon class="cls-2" points="84.9 40.68 84.87 40.74 84.83 40.68 84.9 40.68"/><path class="cls-2" d="M282.94,30.48,265.64,0H229.93l-17.4,30.48,0,.06,0,.05,17.4,30.54h35.71l17.3-30.54,0-.05ZM258.11,48.07H237.36L227.22,30.54l10.11-17.47h20.81l10.11,17.47Z"/><polygon class="cls-2" points="211.95 27.67 211.98 27.73 211.91 27.73 211.95 27.67"/><polygon class="cls-2" points="211.98 27.62 211.95 27.67 211.91 27.62 211.98 27.62"/></g></g></svg>