<svg xmlns="http://www.w3.org/2000/svg" viewBox="0 0 298.86 61.13"><defs><style>.cls-1,.cls-2{fill:#10314e;}.cls-2{fill-rule:evenodd;}</style></defs><g id="レイヤー_2" data-name="レイヤー 2"><g id="レイヤー_2-2" data-name="レイヤー 2"><rect class="cls-1" width="13.06" height="61.13"/><rect class="cls-1" x="89.54" width="13.06" height="61.13"/><polygon class="cls-2" points="298.86 0 284.26 0 273.83 17.98 263.4 0 248.81 0 266.54 30.57 248.81 61.13 263.4 61.13 273.83 43.15 284.26 61.13 298.86 61.13 281.13 30.57 298.86 0"/><polygon class="cls-2" points="155.52 0 155.52 38.45 133.38 0 131.44 0 118.56 0 118.37 0 118.37 61.13 131.44 61.13 131.44 22.36 153.77 61.13 155.52 61.13 168.59 61.13 168.59 0 155.52 0"/><polygon class="cls-2" points="78.13 61.13 63.41 61.13 51.64 40.79 51.61 40.74 51.64 40.68 63.38 20.4 59.14 13.07 40.87 13.07 40.87 61.13 27.8 61.13 27.8 0 66.3 0 73.86 13.07 78.06 20.34 78.09 20.4 78.06 20.45 66.33 40.74 78.13 61.13"/><polygon class="cls-2" points="78.13 20.45 78.06 20.45 78.09 20.4 78.13 20.45"/><polygon class="cls-2" points="51.61 40.74 51.64 40.79 51.58 40.79 51.61 40.74"/><polygon class="cls-2" points="78.13 20.34 78.09 20.4 78.06 20.34 78.13 20.34"/><polygon class="cls-2" points="51.64 40.68 51.61 40.74 51.58 40.68 51.64 40.68"/><path class="cls-2" d="M249.68,30.48,232.39,0H196.68l-17.4,30.48,0,.06,0,.05,17.4,30.54h35.71l17.29-30.54,0-.05ZM224.85,48.07H204.11L194,30.54l10.1-17.47h20.82L235,30.54Z"/><polygon class="cls-2" points="178.69 27.67 178.72 27.73 178.66 27.73 178.69 27.67"/><polygon class="cls-2" points="178.72 27.62 178.69 27.67 178.66 27.62 178.72 27.62"/></g></g></svg>