<svg xmlns="http://www.w3.org/2000/svg" viewBox="0 0 103.85 90"><defs><style>.cls-1{fill:#10314e;}.cls-1,.cls-3{fill-rule:evenodd;}.cls-2,.cls-3{fill:#fff;}</style></defs><g id="レイヤー_2" data-name="レイヤー 2"><g id="レイヤー_2-2" data-name="レイヤー 2"><path class="cls-1" d="M103.8,44.88,78.32,0H25.69L0,44.88,0,45,0,45,25.69,90H78.32L103.8,45l0-.08Z"/><path class="cls-2" d="M60.65,52.62a9,9,0,0,1-2.36,5.87,99.16,99.16,0,0,1-8.15,7.7H60.65v4.53H43.48V66.19q8.6-7.83,10.52-10A6.53,6.53,0,0,0,55.94,52a3.74,3.74,0,0,0-1.13-2.81,4,4,0,0,0-2.88-1.09A3.55,3.55,0,0,0,49,49.46a6,6,0,0,0-1.07,3.77H43.14a9.87,9.87,0,0,1,2.48-7,8.66,8.66,0,0,1,6.61-2.62,7.9,7.9,0,0,1,6.06,2.53A9.2,9.2,0,0,1,60.65,52.62Z"/><rect class="cls-2" x="52.81" y="22.59" width="2.83" height="13.25"/><polygon class="cls-3" points="80.27 22.59 76.98 22.59 76.98 22.59 74.15 22.59 74.15 22.59 70.86 22.59 70.86 25.42 74.15 25.42 74.15 35.84 76.98 35.84 76.98 25.42 80.27 25.42 80.27 22.59"/><polygon class="cls-3" points="65.86 22.59 65.86 30.92 61.06 22.59 60.64 22.59 57.85 22.59 57.81 22.59 57.81 35.84 60.64 35.84 60.64 27.44 65.48 35.84 65.86 35.84 68.69 35.84 68.69 22.59 65.86 22.59"/><polygon class="cls-3" points="34.48 27.01 34.47 27.02 31.93 31.41 31.93 31.41 33.56 28.59 34.47 27.01 34.48 27 34.48 27.01"/><path class="cls-3" d="M34.47,27l-.91-1.58L31.93,22.6H23.58V35.84h2.83V31.42h5.52l1.63-2.82L34.47,27h0Zm-8.06-1.58h4L31.29,27l-.92,1.58h-4Z"/><polygon class="cls-3" points="34.48 27 34.48 27 34.47 27 33.56 25.42 31.93 22.6 31.93 22.6 34.47 26.99 34.48 27"/><polygon class="cls-3" points="51.65 27.02 51.64 27.02 51.65 27.01 51.65 27.02"/><polygon class="cls-3" points="51.02 27 51.01 27.01 51 27 51.02 27"/><path class="cls-3" d="M50.64,29.2l-3.75-6.61H39.15L35.38,29.2h0l3.77,6.62h7.74l3.75-6.62h0ZM45.26,33h-4.5l-2.2-3.8,2.19-3.79h4.51l2.19,3.79Z"/></g></g></svg>