<svg xmlns="http://www.w3.org/2000/svg" viewBox="0 0 103.85 90"><defs><style>.cls-1{fill:#10314e;}.cls-1,.cls-3{fill-rule:evenodd;}.cls-2,.cls-3{fill:#fff;}</style></defs><g id="レイヤー_2" data-name="レイヤー 2"><g id="レイヤー_2-2" data-name="レイヤー 2"><path class="cls-1" d="M103.8,44.88,78.32,0H25.69L0,44.88,0,45,0,45,25.69,90H78.32L103.8,45l0-.08Z"/><path class="cls-2" d="M54.32,50.63a2.63,2.63,0,0,0-.61-1.87,2.56,2.56,0,0,0-3.42,0,2.6,2.6,0,0,0-.71,1.74H44.74a7,7,0,0,1,2.09-5,6.89,6.89,0,0,1,5-2,7.34,7.34,0,0,1,5.29,2,6.82,6.82,0,0,1,2.07,5.12A5.93,5.93,0,0,1,57,55.4l-.09.07a5.74,5.74,0,0,1,1.49,1A6.84,6.84,0,0,1,61,61.93a9.17,9.17,0,0,1-2.56,6.69,8.72,8.72,0,0,1-6.53,2.63,8.8,8.8,0,0,1-6.3-2.34,9.2,9.2,0,0,1-2.76-6.24h4.83a5.1,5.1,0,0,0,1.35,3,4.65,4.65,0,0,0,6-.13,4.45,4.45,0,0,0,1.11-3.2,4.18,4.18,0,0,0-1.27-3.15A4.52,4.52,0,0,0,51.58,58H50.1V53.48h1.13a3.26,3.26,0,0,0,2.3-.74A2.69,2.69,0,0,0,54.32,50.63Z"/><rect class="cls-2" x="52.81" y="22.59" width="2.83" height="13.25"/><polygon class="cls-3" points="80.27 22.59 76.98 22.59 76.98 22.59 74.15 22.59 74.15 22.59 70.86 22.59 70.86 25.42 74.15 25.42 74.15 35.84 76.98 35.84 76.98 25.42 80.27 25.42 80.27 22.59"/><polygon class="cls-3" points="65.86 22.59 65.86 30.92 61.06 22.59 60.64 22.59 57.85 22.59 57.81 22.59 57.81 35.84 60.64 35.84 60.64 27.44 65.48 35.84 65.86 35.84 68.69 35.84 68.69 22.59 65.86 22.59"/><polygon class="cls-3" points="34.48 27.01 34.47 27.02 31.93 31.41 31.93 31.41 33.56 28.59 34.47 27.01 34.48 27 34.48 27.01"/><path class="cls-3" d="M34.47,27l-.91-1.58L31.93,22.6H23.58V35.84h2.83V31.42h5.52l1.63-2.82L34.47,27h0Zm-8.06-1.58h4L31.29,27l-.92,1.58h-4Z"/><polygon class="cls-3" points="34.48 27 34.48 27 34.47 27 33.56 25.42 31.93 22.6 31.93 22.6 34.47 26.99 34.48 27"/><polygon class="cls-3" points="51.65 27.02 51.64 27.02 51.65 27.01 51.65 27.02"/><polygon class="cls-3" points="51.02 27 51.01 27.01 51 27 51.02 27"/><path class="cls-3" d="M50.64,29.2l-3.75-6.61H39.15L35.38,29.2h0l3.77,6.62h7.74l3.75-6.62h0ZM45.26,33h-4.5l-2.2-3.8,2.19-3.79h4.51l2.19,3.79Z"/></g></g></svg>