<svg xmlns="http://www.w3.org/2000/svg" viewBox="0 0 656.13 197.18"><defs><style>.cls-1,.cls-2{fill:#fff;}.cls-2{fill-rule:evenodd;}</style></defs><g id="レイヤー_2" data-name="レイヤー 2"><g id="レイヤー_2-2" data-name="レイヤー 2"><path class="cls-1" d="M27.15,36.8c-1.32.79-2.68,1.54-4.31,2.33A120.36,120.36,0,0,0,12.06,45c-3.61,2.38-6,4.89-6,7.92s3,4.8,9.06,4.8a72.82,72.82,0,0,0,14.22-1.58l-.09,6.25a80.11,80.11,0,0,1-14,1.1C6.56,63.47,0,61.05,0,53.52c0-4.8,3-8.36,7.22-11.44-2-3.7-4.1-8.36-6.08-13l5.51-2.25A101.07,101.07,0,0,0,12.1,38.91c3.21-1.89,6.29-3.43,8.32-4.62a27.49,27.49,0,0,0,4-2.6Zm.66-10.74a62.93,62.93,0,0,1,3.52,6l-3.56,1.5a52.88,52.88,0,0,0-3.43-6.12Zm5.24-2a59.79,59.79,0,0,1,3.52,6l-3.48,1.5a46.11,46.11,0,0,0-3.56-6.07Z"/><path class="cls-1" d="M61.43,41.46a39.19,39.19,0,0,0-11.36,2.11c-1.27.4-3,1.06-4.22,1.5l-1.63-6.2A44.29,44.29,0,0,0,49,38.12c3.22-.71,8.1-2,13.16-2,6.91,0,11.75,3.91,11.75,10.74,0,9.32-8.63,15.13-20.73,16.81L50,58.23C60.81,57,67.72,53.48,67.72,46.65,67.72,43.79,65.52,41.42,61.43,41.46Zm8.8-13.77-.88,5.37c-5.11-.35-14.57-1.19-19.59-2.07l.89-5.28A123.08,123.08,0,0,0,70.23,27.69Z"/><path class="cls-1" d="M98.12,26.37a43.75,43.75,0,0,0-.57,5.81C97.33,36.84,97,46.61,97,52c0,4.4,2.64,5.81,6,5.81,7.21,0,11.79-4.13,14.91-8.89l4,4.89A22.65,22.65,0,0,1,103,63.77c-7.13,0-11.75-3.12-11.75-10.56,0-5.85.44-17.29.44-21a27.16,27.16,0,0,0-.57-5.9Z"/><path class="cls-1" d="M133.32,30.72c3.61-.35,10.83-1,18.79-1.67,4.49-.35,9.29-.61,12.32-.75l0,5.64a44.83,44.83,0,0,0-8.41.57c-5.24,1.41-9.2,7-9.2,12.19,0,7.17,6.74,9.72,14.09,10.12l-2,6c-9.15-.62-17.78-5.55-17.78-15a17.39,17.39,0,0,1,6.43-13.42c-3.74.39-12.94,1.36-18,2.46l-.53-6C130.77,30.9,132.44,30.81,133.32,30.72Z"/><path class="cls-1" d="M509.87,54.8c.09-1.28.13-3.3.18-5.2-3.21,1.76-5,3.48-5,5.64,0,2.42,2.06,3.08,6.33,3.08A66.87,66.87,0,0,0,523.78,57l-.18,5.68a121.2,121.2,0,0,1-12.32.7c-6.82,0-12-1.63-12-7.26s5.28-9.07,10.26-11.62a3.41,3.41,0,0,0-3-1.49,10.73,10.73,0,0,0-6.82,3,55.4,55.4,0,0,0-4,4.8L491,47.36c4.58-4.23,7.66-8.1,9.6-12h-.53c-1.76,0-5-.09-7.35-.31V30a56.28,56.28,0,0,0,7.66.48h2.11a23.85,23.85,0,0,0,.88-5l5.72.48c-.22,1.06-.53,2.55-1.05,4.31A101.5,101.5,0,0,0,520.35,29l-.05,5.1a142,142,0,0,1-14.21,1.15,27.53,27.53,0,0,1-2.51,4.4,13.68,13.68,0,0,1,4.93-.88c2.64,0,4.84,1.14,5.81,3.39,2.24-1.06,4.09-1.81,5.89-2.6s3.22-1.5,4.8-2.24l2.2,5.06A47,47,0,0,0,522,44.23c-1.94.75-4.4,1.72-7.09,3,.05,2.42.14,5.64.18,7.62Z"/><path class="cls-1" d="M562.32,48.86a20.78,20.78,0,0,1-2.42,7.65A44.09,44.09,0,0,0,575,60.21a21.57,21.57,0,0,0-3.12,4.66,40.1,40.1,0,0,1-15.05-4.62,22.49,22.49,0,0,1-9,4.71,29.24,29.24,0,0,0-3.26-4.36,20.29,20.29,0,0,0,8-3.38,25.22,25.22,0,0,1-5.41-6.56l4.27-1.32a17.9,17.9,0,0,0,4.09,4.53,14.4,14.4,0,0,0,1.63-5h-9.82V36h10.12V32.93h-11V28.88c-.79,1.67-1.67,3.38-2.64,5.06V65.05h-5V41.42a49.85,49.85,0,0,1-3.61,4.13,35.15,35.15,0,0,0-2.78-5.36A46.51,46.51,0,0,0,543,23.77l4.84,1.59c-.39.92-.79,1.84-1.18,2.81h10.73v-4h5.2v4h11.66v4.76H562.59V36h10.47V48.86Zm-4.93-4.23V40.27H552v4.36Zm5.2-4.36v4.36H568V40.27Z"/><path class="cls-1" d="M599.41,41.46a39.11,39.11,0,0,0-11.35,2.11c-1.28.4-2.95,1.06-4.23,1.5l-1.62-6.2a44.29,44.29,0,0,0,4.75-.75c3.21-.71,8.1-2,13.16-2,6.91,0,11.75,3.91,11.75,10.74,0,9.32-8.63,15.13-20.73,16.81L588,58.23c10.83-1.23,17.74-4.75,17.74-11.58C605.71,43.79,603.51,41.42,599.41,41.46Zm8.8-13.77-.88,5.37c-5.1-.35-14.56-1.19-19.58-2.07l.88-5.28A123.08,123.08,0,0,0,608.21,27.69Z"/><path class="cls-1" d="M655.34,35.52c-1.32.79-2.73,1.54-4.31,2.33a135.3,135.3,0,0,0-12.15,6.47c-3.65,2.38-6.07,4.89-6.07,7.92s3,4.8,9.06,4.8a72.89,72.89,0,0,0,14.26-1.58L656,61.75a84.74,84.74,0,0,1-14,1c-8.67,0-15.23-2.41-15.23-9.9,0-4.84,3-8.4,7.22-11.48-2-3.74-4.14-8.36-6.12-13l5.5-2.25a103.38,103.38,0,0,0,5.46,12.06c3.57-2.07,7.35-4,9.42-5.15a29.5,29.5,0,0,0,4-2.64Z"/><path class="cls-1" d="M75.2,120.66c3,3.35,8,5,15.49,5.51A19.76,19.76,0,0,0,87.56,131c-9.06-1.06-14.39-3.92-17.82-9.69-2.33,4.71-7.22,7.84-18.09,9.6a15.21,15.21,0,0,0-2.59-4.71c8.36-1.1,12.5-2.86,14.7-5.55H49.85v-4.57H65.78c.18-.84.31-1.72.44-2.69H50.11v-4.66H66.93v-2.25h-13v-4.4h13V99.85H51.88V95.23h7.61a17.34,17.34,0,0,0-2.29-3.65l4.62-1.81a17.61,17.61,0,0,1,3.26,5l-1,.44H75l-1.23-.35a29.44,29.44,0,0,0,3-5.15l5.63,1.41c-1.05,1.54-2.11,2.94-3,4.09h8.14v4.62H72.29v2.24H85.76v4.4H72.29v2.25h17v4.66H71.77a25.6,25.6,0,0,1-.4,2.69H89.76v4.57Z"/><path class="cls-1" d="M99.31,120v3.52h-4.8V93.69h13.2V120Zm0-21.25v16.15H103V98.71ZM125,111.86c2.29,4.8,5.86,9.51,9.64,12.15a24.32,24.32,0,0,0-3.87,4.36,36.62,36.62,0,0,1-7.09-9.51v12h-5.28V118.55a30.21,30.21,0,0,1-9.19,9.73,24.91,24.91,0,0,0-3.57-4.14c4.75-2.46,8.89-7.17,11.35-12.28h-8v-5h9.46v-5.46h-8v-5h8V90.21h5.28v6.25h9v5h-9v5.46h10.43v5Z"/><path class="cls-1" d="M152.11,92.37a43.75,43.75,0,0,0-.57,5.81c-.22,4.66-.53,14.43-.53,19.84,0,4.4,2.64,5.81,6,5.81,7.22,0,11.8-4.13,14.92-8.89l4,4.89A22.65,22.65,0,0,1,157,129.77c-7.13,0-11.75-3.12-11.75-10.56,0-5.85.44-17.29.44-21a27.8,27.8,0,0,0-.57-5.9Z"/><path class="cls-1" d="M217.5,101.21c-2.2.62-4.76,1.24-7.4,1.76,1.67,3.52,3.74,7.66,5.64,11.14l-3.08,3.3c-2.38-.49-6.69-1.19-9.91-1.59l.49-4.48c1.45.13,3.83.39,5.15.48-1.06-2.2-2.56-5.24-3.83-8a96.58,96.58,0,0,1-18.35,0L186,98.26a74.43,74.43,0,0,0,16.28.45c-.35-.71-.66-1.41-.92-2.07a32.77,32.77,0,0,0-2.16-4.18l6.16-1.19c.75,2.29,1.59,4.35,2.56,6.64a62.62,62.62,0,0,0,8.53-2.2Zm-23.81,12.1a19.52,19.52,0,0,0-1.19,5.2c0,3.17,1.63,5.32,7.79,5.32a48.24,48.24,0,0,0,11.88-1.27l-.13,5.76a61,61,0,0,1-11.75,1.06c-8.76,0-13.47-3.3-13.47-9.38a29.34,29.34,0,0,1,1.24-7.17Z"/><path class="cls-1" d="M235,94.57c.4.79,1.28,2.59,1.76,3.39.66,1.27,1.36,2.68,2,4.13,5.29-2.33,10.57-4.4,15-4.4,6.78,0,10.83,4.1,10.83,9.16,0,6.11-4.18,9.94-10.87,9.94a21,21,0,0,1-6.69-1.23l.13-5.46a16,16,0,0,0,6,1.45c3.35,0,5.68-1.76,5.68-4.88,0-2.24-1.89-4-5.19-4s-8.14,1.81-12.81,4l1.23,2.69c2,4.75,5.37,14.08,6.87,19l-6,1.54A131.39,131.39,0,0,0,237,111.69L235.88,109c-3.12,1.54-5.89,3-7.74,3.88l-2.55-5.59a26.38,26.38,0,0,0,4.31-1.41c1.28-.49,2.6-1.06,3.92-1.63-.66-1.32-1.28-2.55-1.94-3.7a37.4,37.4,0,0,0-2.55-3.83Zm11.31,4.05a63.15,63.15,0,0,0-5.68-5.2l4-2.81a67.41,67.41,0,0,1,5.81,5Z"/><path class="cls-1" d="M271.65,105.17a14.67,14.67,0,0,0-2.72-2.2,30.6,30.6,0,0,0,6.2-13.11l4.71.57c-.31,1.15-.62,2.29-1,3.43h4.09l.84-.26,2.9,1.94a56.41,56.41,0,0,1-2.82,5.45h5v17.74H271.65Zm-2.72,23.9c1.76-2.11,2.64-5.59,3-9.07l3.61.88c-.44,3.83-1.15,7.75-3.22,10.13Zm6.91-21.21h2.46v-2.73h-2.46Zm0,6.73h2.46v-2.86h-2.46Zm1.54-16.81c-.44,1.1-1,2.16-1.5,3.21h3.3a31.29,31.29,0,0,0,1.5-3.21Zm2.11,22.27a47,47,0,0,1,.61,8.71l-3.56.4a45.62,45.62,0,0,0-.4-8.72Zm4.13-.09a33.58,33.58,0,0,1,2,8.18l-3.38.75a37.55,37.55,0,0,0-1.76-8.31Zm.8-14.83h-2.51v2.73h2.51Zm0,6.6h-2.51v2.86h2.51Zm3.47,7.57a33.89,33.89,0,0,1,3.26,8.1l-3.39,1.32a33.66,33.66,0,0,0-2.95-8.32Zm22.45,1h-8.23v10.56H297V120.31h-7.48v-4.57H297V111.6h-6.29v-4.49H297v-3.83h-7.21V98.71h3.38a32.33,32.33,0,0,0-2.81-7.31l4.27-1.5a29.22,29.22,0,0,1,3.25,7.88l-2.42.93h8.41L300.92,98a52.61,52.61,0,0,0,2.95-8.1L309.19,91a84,84,0,0,1-3.74,7.71h3.87v4.57h-7.21v3.83h6.55v4.49h-6.55v4.14h8.23Z"/><path class="cls-1" d="M321.68,106.14c0,7.13-.66,17.91-4.66,24.69a19.09,19.09,0,0,0-4.27-2.86c3.65-6.25,3.92-15.4,3.92-21.83V93.82h15.66V89.9h5.46v3.92h15.62v4.66H321.68ZM351,116.35a21.62,21.62,0,0,1-7.52,8.36,57.44,57.44,0,0,0,10.82,1.89,21.43,21.43,0,0,0-3.08,4.49,46.51,46.51,0,0,1-13.38-3.47,59.91,59.91,0,0,1-14.47,3.43,17.53,17.53,0,0,0-2.12-4.4,59.63,59.63,0,0,0,11.4-2,22.37,22.37,0,0,1-5.06-4.89l2.07-.74h-6.56v-4.1h23.72l.93-.22Zm-22.27-3.17v-6.86h-5.94v-4.14h5.94v-2.9h4.93v2.9h8v-2.9h5.2v2.9h6.33v4.14h-6.33v6.86Zm4.14,5.86a17.67,17.67,0,0,0,5.15,3.6,20,20,0,0,0,5.28-3.6Zm.79-12.72v2.9h8v-2.9Z"/><path class="cls-1" d="M377.87,120.8c.09-1.28.13-3.3.18-5.2-3.21,1.76-5,3.48-5,5.64,0,2.42,2.06,3.08,6.33,3.08A66.87,66.87,0,0,0,391.78,123l-.18,5.68a121.2,121.2,0,0,1-12.32.7c-6.82,0-12-1.63-12-7.26s5.28-9.07,10.26-11.62a3.41,3.41,0,0,0-3-1.49,10.73,10.73,0,0,0-6.82,3,55.4,55.4,0,0,0-4,4.8L359,113.36c4.58-4.23,7.66-8.1,9.6-12h-.53c-1.76,0-5-.09-7.35-.31V96a56.28,56.28,0,0,0,7.66.48h2.11a23.85,23.85,0,0,0,.88-5l5.72.48c-.22,1.06-.53,2.55-1.05,4.31A101.5,101.5,0,0,0,388.35,95l-.05,5.1a142,142,0,0,1-14.21,1.15,27.53,27.53,0,0,1-2.51,4.4,13.68,13.68,0,0,1,4.93-.88c2.64,0,4.84,1.14,5.81,3.39,2.24-1.06,4.09-1.81,5.89-2.6s3.22-1.5,4.8-2.24l2.2,5.06a47,47,0,0,0-5.19,1.84c-1.94.75-4.4,1.72-7.09,3,.05,2.42.14,5.64.18,7.62Z"/><path class="cls-1" d="M415.8,91.53a73.13,73.13,0,0,1-4.09,8.67v30.67h-5v-23a49.1,49.1,0,0,1-3.35,3.91,34.59,34.59,0,0,0-2.82-5.36A46.33,46.33,0,0,0,411,90Zm17.34,24.07a33.18,33.18,0,0,0,10.08,9.6,22.3,22.3,0,0,0-3.7,4.18,36.36,36.36,0,0,1-8.93-9.77V131h-5.28V119.83a35.3,35.3,0,0,1-9.51,9.46,21.31,21.31,0,0,0-3.61-4.18,31.6,31.6,0,0,0,10.61-9.51h-9v-4.75h11.53v-4h-8.63V91.8h23.1v15.09h-9.19v4h11.35v4.75Zm-11.49-13.33h12.9v-5.9h-12.9Z"/><path class="cls-1" d="M454.78,107.29c3-.88,10.34-3.39,15.63-3.39,6.86,0,11.48,4.09,11.48,10.69,0,7.88-6.91,13.29-20.77,14.13l-2.29-5.42c9.9-.26,17.3-2.86,17.3-8.8,0-3.25-2.47-5.54-6.25-5.54-5.06,0-13.73,3.61-17.47,5.19l-2.25-5.72A37,37,0,0,0,454.78,107.29Z"/><path class="cls-1" d="M514.58,102c-2.59.57-5.54,1.06-8.45,1.41-.39,1.89-.83,3.83-1.32,5.59a139.19,139.19,0,0,1-6.91,20.15l-6.11-2c2.59-4.36,5.89-13.51,7.52-19.63.31-1.14.62-2.37.93-3.61-1,.05-2,.09-2.86.09-2.12,0-3.75-.09-5.29-.17L492,98.31a43.71,43.71,0,0,0,5.5.35c1.28,0,2.56,0,3.88-.13.17-1,.3-1.81.39-2.51a22.52,22.52,0,0,0,.18-4.4l6.64.53c-.3,1.19-.7,3.12-.92,4.09l-.35,1.67c2.46-.39,4.93-.88,7.3-1.45Zm-.88,14.3a15.25,15.25,0,0,0-.61,3.66c0,1.89,1.1,3.3,5.76,3.3a50.85,50.85,0,0,0,9.07-.88l-.22,5.59a71.56,71.56,0,0,1-8.89.61c-7.35,0-11.09-2.55-11.09-6.95a30.14,30.14,0,0,1,.74-5.81Zm-2.55-11c2.42-.22,5.54-.44,8.36-.44,2.46,0,5.11.13,7.66.39L527,110.5a61.76,61.76,0,0,0-7.49-.53,64.41,64.41,0,0,0-8.4.48Z"/><path class="cls-1" d="M567,127.35a33.21,33.21,0,0,0-8.8-6c0,.58,0,1.1,0,1.54,0,3.74-2.82,6.61-8.58,6.61-6.95,0-10.65-2.64-10.65-7.27,0-4.4,4-7.48,10.78-7.48a26,26,0,0,1,2.68.14c-.08-1.32-.13-2.69-.17-4H550c-2.55,0-7.56-.21-10.47-.57l0-5.15a77.93,77.93,0,0,0,10.51.8h2.07v-4.54h-2.07a71.92,71.92,0,0,1-9.46-.66l0-5a57.43,57.43,0,0,0,9.46.84h2.16v-2a18.13,18.13,0,0,0-.22-3H558a26.24,26.24,0,0,0-.31,3.08l0,1.72A89.3,89.3,0,0,0,568,95.4l.13,5c-2.86.26-6.38.62-10.56.84l0,4.53c4.4-.18,8.05-.57,11.61-1v5.15c-3.91.44-7.3.75-11.53.88.09,1.62.18,3.39.31,5.06a33.7,33.7,0,0,1,12.19,6.6Zm-14.35-7.83a22.78,22.78,0,0,0-3.56-.31c-3.08,0-4.76,1.19-4.76,2.69s1.54,2.68,4.54,2.68c2.33,0,3.83-.7,3.83-3.21C552.69,120.88,552.69,120.27,552.64,119.52Z"/><path class="cls-1" d="M611,127.35a33.21,33.21,0,0,0-8.8-6c0,.58,0,1.1,0,1.54,0,3.74-2.82,6.61-8.58,6.61-6.95,0-10.65-2.64-10.65-7.27,0-4.4,4-7.48,10.78-7.48a26,26,0,0,1,2.68.14c-.08-1.32-.13-2.69-.17-4H594c-2.55,0-7.56-.21-10.47-.57l0-5.15a77.93,77.93,0,0,0,10.51.8h2.07v-4.54h-2.07a71.92,71.92,0,0,1-9.46-.66l0-5a57.43,57.43,0,0,0,9.46.84h2.16v-2a18.13,18.13,0,0,0-.22-3H602a26.24,26.24,0,0,0-.31,3.08l0,1.72A89.3,89.3,0,0,0,612,95.4l.13,5c-2.86.26-6.38.62-10.56.84l0,4.53c4.4-.18,8.05-.57,11.61-1v5.15c-3.91.44-7.3.75-11.53.88.09,1.62.18,3.39.31,5.06a33.7,33.7,0,0,1,12.19,6.6Zm-14.35-7.83a22.78,22.78,0,0,0-3.56-.31c-3.08,0-4.76,1.19-4.76,2.69s1.54,2.68,4.54,2.68c2.33,0,3.83-.7,3.83-3.21C596.69,120.88,596.69,120.27,596.64,119.52Z"/><path class="cls-1" d="M33.26,169.77c-.79.57-1.58,1.14-2.46,1.71a17.48,17.48,0,0,0-3.65-3.78,30.35,30.35,0,0,0,11.79-12.06l5.59,1.06c-.44.74-.93,1.54-1.41,2.28H52.8l.84-.22L57.2,161a40,40,0,0,1-3.43,5.1H63v16.64H48.84A22,22,0,0,1,53,185.61l-3.43,3.56a30.38,30.38,0,0,0-7.71-5.06l1.37-1.36H32.47v-4.18H57.82v-2.2H34v-3.92H57.82v-2.16H33.26ZM27.15,192.6a14.75,14.75,0,0,0,5.94-7.83l4.66,1.67c-1.19,3.61-3,7-6.29,9.2Zm13-29.48c-.84,1-1.76,2-2.73,3H47.61a36.53,36.53,0,0,0,2.2-3ZM51.31,192c1.49,0,1.8-.53,2-4.14a12.53,12.53,0,0,0,4.49,1.81c-.57,5.45-2,6.77-6,6.77H45.41c-5.37,0-6.6-1.36-6.6-5.67v-5.24h5.1v5.15c0,1.19.31,1.32,2.12,1.32Zm9.33-7.79c2.81,2.51,6.2,6.16,7.65,8.76l-4.71,2.73c-1.23-2.51-4.48-6.34-7.3-9.11Z"/><path class="cls-1" d="M81.93,186.75c1.8,2.95,5.1,4.14,9.68,4.31,5.15.22,15,.09,20.9-.35a28.07,28.07,0,0,0-1.63,5.28c-5.28.27-14.12.36-19.36.14-5.41-.22-9-1.46-11.88-4.89-1.94,1.72-3.87,3.43-6.25,5.28l-2.55-5.46a60.56,60.56,0,0,0,6-4v-9.29H71.76v-4.8H81.93Zm-3-19.76a33.45,33.45,0,0,0-7.08-7l3.87-3.17A35.37,35.37,0,0,1,83,163.52Zm15.8-2.94H83.86v-4.36H94.69V155.9h5.1v3.79h11.49v4.36H99.79v2.37h10v11.8H101.6A32.07,32.07,0,0,0,111.9,185a24.07,24.07,0,0,0-3.52,4.09,33.65,33.65,0,0,1-8.59-6.9v7.74h-5.1v-8A28.15,28.15,0,0,1,86,189.22a18.79,18.79,0,0,0-3.3-4,26.16,26.16,0,0,0,9.68-7H85.23v-11.8h9.46Zm-4.62,10.2h4.62v-3.82H90.07Zm9.72-3.82v3.82h4.89v-3.82Z"/><path class="cls-1" d="M115,190.23a134,134,0,0,0,8.23-13.6l4,3.57c-2.33,4.53-5,9.41-7.57,13.73Zm8-22a40.36,40.36,0,0,0-7.31-6.6l3.61-3.79a46.5,46.5,0,0,1,7.57,6.12Zm19.53-12.19c3.7,5.32,9.07,10.56,14.35,13.11a31.27,31.27,0,0,0-3.21,4.89,39.88,39.88,0,0,1-5.85-4.45v4.05h-15v-3.52a41.68,41.68,0,0,1-6.56,5.11,25.89,25.89,0,0,0-2.9-4.45,42.15,42.15,0,0,0,14.08-14.74Zm10.74,31.64c0,2.42-.39,3.83-2,4.67s-3.79.83-6.69.83a16.23,16.23,0,0,0-1.45-5.06c1.8.09,3.69.09,4.27,0s.74-.13.74-.61V182h-7.57v14.83h-5.28V182h-6.82V177.2h24.82ZM147,168.93a46,46,0,0,1-6.82-7.66,44.73,44.73,0,0,1-6.16,7.66Z"/><path class="cls-1" d="M197.78,174.17a46.51,46.51,0,0,1-5.89,14c1,2.55,2.11,3.87,3,3.87s1.23-1.27,1.45-5.59a12.38,12.38,0,0,0,4.23,2.51c-.75,6.78-2.34,8-6.08,8-2.28,0-4.22-1.63-5.81-4.53a32,32,0,0,1-5.36,4.66,26.78,26.78,0,0,0-4-3.52l.35-.22h-7.08v1.89H168.7V173.37h14.69v3.44h-4.26v1.84h4.26v8.94h-4.26v2.11h4.7v.44a24.35,24.35,0,0,0,2.73-3,75.73,75.73,0,0,1-2.59-15.4h-16.9v7c0,5.68-.62,13.51-4.23,18.44a21.52,21.52,0,0,0-4.09-2.68c3.26-4.49,3.56-10.92,3.56-15.85V167.34h21.35c0-1.05-.09-2.15-.13-3.25h.83v-1.67h-9.42V165H169.8v-2.59h-9.69v-4.27h9.69V155.9h5.14v2.25h9.42V155.9h5.19v2.25h9.73v4.27h-9.73v2.37h-1.1c0,.88.05,1.72.05,2.55h5.28a19,19,0,0,0-3.12-2.68l3.12-2.24a17.75,17.75,0,0,1,3.92,3.25l-2.16,1.67h3.83v4.41H188.72a71,71,0,0,0,1.28,9.77,42.59,42.59,0,0,0,2.81-8.23Zm-25.21,2.64v1.84h2.9v-1.84Zm7.3,5.1h-7.3v2.51h7.3Zm-7.3,7.79h2.9v-2.11h-2.9Z"/><path class="cls-1" d="M223.7,170.78a5.63,5.63,0,1,1-5.64,5.63A5.67,5.67,0,0,1,223.7,170.78Z"/><path class="cls-1" d="M247,190.23a134,134,0,0,0,8.23-13.6l4,3.57c-2.33,4.53-5,9.41-7.57,13.73Zm8-22a40.36,40.36,0,0,0-7.31-6.6l3.61-3.79a46.5,46.5,0,0,1,7.57,6.12Zm19.53-12.19c3.7,5.32,9.07,10.56,14.35,13.11a31.27,31.27,0,0,0-3.21,4.89,39.88,39.88,0,0,1-5.85-4.45v4.05h-15v-3.52a41.68,41.68,0,0,1-6.56,5.11,25.89,25.89,0,0,0-2.9-4.45,42.15,42.15,0,0,0,14.08-14.74Zm10.74,31.64c0,2.42-.39,3.83-2,4.67s-3.79.83-6.69.83a16.23,16.23,0,0,0-1.45-5.06c1.8.09,3.69.09,4.27,0s.74-.13.74-.61V182h-7.57v14.83h-5.28V182h-6.82V177.2h24.82ZM279,168.93a46,46,0,0,1-6.82-7.66,44.73,44.73,0,0,1-6.16,7.66Z"/><path class="cls-1" d="M302.41,179c-2.07,4.32-4.57,9.11-7,13.16L291,188.64a119,119,0,0,0,7.53-13.11Zm-4.22-9.63a34.46,34.46,0,0,0-6.78-7l3.52-3.39c2.51,1.8,5.68,4.53,7,6.56ZM322,182.75a28.63,28.63,0,0,0,10.51,8.84,23,23,0,0,0-3.61,4.32,31.39,31.39,0,0,1-9.63-9.73v10.74h-5.15V186a31.33,31.33,0,0,1-11.58,10.12,23.15,23.15,0,0,0-3.43-4.14,28.23,28.23,0,0,0,11.75-9.19h-7V166.6h10.26v-2.69h-11.8v-4.53h11.8v-3.52h5.15v3.52h12.05v4.53H319.27v2.69H330v16.15Zm-13.43-9.82h5.55v-2.55h-5.55Zm0,6h5.55v-2.51h-5.55Zm10.7-8.58v2.55H325v-2.55Zm5.76,6.07h-5.76V179H325Z"/><path class="cls-1" d="M417.39,178.3v18.62h-5.46v-2.51H387.55V197h-5.32V178.3h5.32v11h9.2V176H384V160h5.19v10.87h7.57V156.3h5.37v14.57h8V160h5.5v16H402.12v13.29h9.81v-11Z"/><path class="cls-1" d="M449.59,180a40.73,40.73,0,0,0,14.92,11.09,24.44,24.44,0,0,0-3.65,4.41,44.59,44.59,0,0,1-14.39-12.06v13.51h-5.55V183.5a45.71,45.71,0,0,1-14.43,11.88,24.34,24.34,0,0,0-3.7-4.4,41.38,41.38,0,0,0,15-11H424v-5h8.31a30.57,30.57,0,0,0-3.3-7.57l4.54-1.72h-7.49v-5h14.83v-4.8h5.55v4.8H461.7v5h-7.31l5.06,1.5a80.8,80.8,0,0,1-4.62,7.79h8.54v5Zm-15.84-14.3a31.3,31.3,0,0,1,3.74,7.66L433.31,175h7.61v-9.29Zm12.72,0V175h7.39l-3.69-1.28a49.53,49.53,0,0,0,3.74-8Z"/><path class="cls-1" d="M499.71,162.94c-1,.66-2.07,1.32-3,2-2.33,1.62-6.9,5.5-9.63,7.7a14.48,14.48,0,0,1,4.09-.49c7.39,0,13,4.62,13,11,0,6.87-5.24,12.32-15.76,12.32-6.07,0-10.65-2.77-10.65-7.13,0-3.52,3.21-6.77,7.83-6.77,5.37,0,8.63,3.3,9.29,7.43a6.34,6.34,0,0,0,3.56-5.94c0-3.92-4-6.56-9-6.56-6.69,0-11,3.57-15.71,8.85l-4-4.09c3.08-2.51,8.32-7,10.92-9.07,2.42-2,6.95-5.67,9.11-7.57-2.25.05-8.23.31-10.52.49a27.51,27.51,0,0,0-3.57.35l-.17-5.68c1.23.13,2.73.22,4,.22,2.29,0,11.62-.22,14.08-.44a20.86,20.86,0,0,0,3.34-.44Zm-9.86,27.42c-.26-2.82-1.89-4.66-4.27-4.66-1.62,0-2.68,1-2.68,2.06,0,1.63,1.85,2.73,4.4,2.73A22.38,22.38,0,0,0,489.85,190.36Z"/><path class="cls-1" d="M530.42,189.79a39.71,39.71,0,0,0,4.05-.71c5.59-1.32,9.9-5.32,9.9-11.66,0-6-3.26-10.51-9.11-11.53a93.74,93.74,0,0,1-2.59,11.84c-2.6,8.8-6.39,14.17-11.14,14.17s-8.89-5.32-8.89-12.67c0-10,8.76-18.66,20.07-18.66,10.78,0,17.6,7.52,17.6,17,0,9.15-5.63,15.66-16.63,17.34ZM527,176.59A70.87,70.87,0,0,0,529.37,166c-7.22,1.49-11,7.83-11,12.62,0,4.41,1.76,6.56,3.39,6.56C523.51,185.21,525.27,182.48,527,176.59Z"/><path class="cls-1" d="M574,158.5c-.27,1.14-.58,2.51-.8,3.61-.22,1.32-.57,2.9-.88,4.49,1.45-.09,2.77-.18,3.65-.18,4.63,0,7.88,2.07,7.88,8.32,0,5.15-.61,12.1-2.46,15.88-1.45,3-3.87,4-7.17,4a23.82,23.82,0,0,1-5.2-.62l-1-5.76a25.37,25.37,0,0,0,5.33.92,3.18,3.18,0,0,0,3.26-1.89c1.23-2.42,1.8-7.61,1.8-11.93,0-3.47-1.5-4-4.27-4-.7,0-1.76.09-3,.18-1.67,6.6-4.84,16.85-8.85,23.28l-5.72-2.29c4.27-5.72,7.22-14.43,8.8-20.37-1.54.17-2.9.35-3.74.48-1.23.13-3.47.44-4.84.66l-.48-5.9a37.48,37.48,0,0,0,4.62,0c1.36,0,3.43-.17,5.63-.35a48.24,48.24,0,0,0,.93-9.24Zm15.05,4.09c2.64,3.74,6.29,12.06,7.61,16.2l-5.5,2.59c-1.15-4.84-4.27-12.71-7.4-16.59Z"/><path class="cls-1" d="M624.76,169.06c0-2.64-2.11-4.13-5.55-4.13a9.14,9.14,0,0,0-7,3.47l-3.61-3.34a14.65,14.65,0,0,1,11.36-5.37c6.38,0,11,2.95,11,8.8,0,6.47-9.59,7.22-8.93,13.33h-5.68C615.43,174.91,624.76,173.33,624.76,169.06Zm-5.55,15.8a4.34,4.34,0,1,1-4.57,4.31A4.28,4.28,0,0,1,619.21,184.86Z"/><path class="cls-1" d="M353.62,163.61c-.26,1.32-.61,2.95-.92,4.54,1.5-.09,2.77-.18,3.7-.18,4.66,0,8,2.07,8,8.41,0,5.19-.61,12.32-2.51,16.15-1.45,3.08-3.87,4.05-7.21,4.05a28.59,28.59,0,0,1-5.28-.62l-.93-5.81a25,25,0,0,0,5.37.92,3.21,3.21,0,0,0,3.3-1.89c1.19-2.51,1.81-7.83,1.81-12.19,0-3.52-1.54-4-4.27-4-.71,0-1.81.09-3.08.17-1.68,6.69-4.93,17.12-9,23.59l-5.72-2.29c4.27-5.76,7.3-14.65,8.93-20.68l-3.78.44c-1.28.22-3.57.53-4.93.75l-.53-6a39,39,0,0,0,4.71,0c1.36,0,3.43-.17,5.68-.39a45.1,45.1,0,0,0,.92-9.29l6.56.66C354.15,161.11,353.84,162.51,353.62,163.61Zm18.66.71-2.15.92a79.85,79.85,0,0,1,7.17,15.36l-5.59,2.55c-1.14-4.88-4.27-12.63-7.39-16.5l4-1.72a49.35,49.35,0,0,0-3-5.19l3.47-1.45A69.72,69.72,0,0,1,372.28,164.32Zm5.24-2-3.48,1.5a49.6,49.6,0,0,0-3.56-6.07l3.52-1.41A59.4,59.4,0,0,1,377.52,162.29Z"/><rect class="cls-1" x="180.55" width="13.06" height="61.13"/><rect class="cls-1" x="270.1" width="13.06" height="61.13"/><polygon class="cls-2" points="479.41 0 464.82 0 454.38 17.98 443.95 0 429.36 0 447.09 30.57 429.36 61.13 443.95 61.13 454.38 43.15 464.82 61.13 479.41 61.13 461.68 30.57 479.41 0"/><polygon class="cls-2" points="336.07 0 336.07 38.45 313.93 0 311.99 0 299.11 0 298.93 0 298.93 61.13 311.99 61.13 311.99 22.36 334.32 61.13 336.07 61.13 349.14 61.13 349.14 0 336.07 0"/><polygon class="cls-2" points="258.68 61.13 243.96 61.13 232.19 40.79 232.16 40.74 232.19 40.68 243.93 20.4 239.69 13.07 221.42 13.07 221.42 61.13 208.36 61.13 208.36 0 246.85 0 254.41 13.07 258.62 20.34 258.65 20.4 258.62 20.45 246.88 40.74 258.68 61.13"/><polygon class="cls-2" points="258.68 20.45 258.62 20.45 258.65 20.4 258.68 20.45"/><polygon class="cls-2" points="232.16 40.74 232.19 40.79 232.13 40.79 232.16 40.74"/><polygon class="cls-2" points="258.68 20.34 258.65 20.4 258.62 20.34 258.68 20.34"/><polygon class="cls-2" points="232.19 40.68 232.16 40.74 232.13 40.68 232.19 40.68"/><path class="cls-2" d="M430.23,30.48,412.94,0H377.23l-17.4,30.48,0,.06,0,.05,17.4,30.54h35.71l17.29-30.54,0-.05ZM405.41,48.07H384.66L374.52,30.54l10.11-17.47h20.81l10.1,17.47Z"/><polygon class="cls-2" points="359.25 27.67 359.27 27.73 359.21 27.73 359.25 27.67"/><polygon class="cls-2" points="359.27 27.62 359.25 27.67 359.21 27.62 359.27 27.62"/></g></g></svg>