<svg xmlns="http://www.w3.org/2000/svg" viewBox="0 0 201.79 88.17"><defs><style>.cls-1{fill:#fff;}.cls-1,.cls-2{fill-rule:evenodd;}.cls-2{fill:none;stroke:#10314e;stroke-miterlimit:10;}.cls-3{fill:#10314e;}</style></defs><g id="レイヤー_2" data-name="レイヤー 2"><g id="レイヤー_2-2" data-name="レイヤー 2"><polygon class="cls-1" points="201.75 28.9 181.62 4.54 15.26 33.88 4.58 63.67 4.56 63.73 4.59 63.77 24.83 88.17 112.09 72.78 134.92 88.17 125.31 70.45 191.2 58.83 201.77 29 201.79 28.95 201.75 28.9"/><polygon class="cls-2" points="197.75 24.9 177.62 0.54 11.26 29.88 0.58 59.67 0.56 59.73 0.59 59.77 20.83 84.17 108.09 68.78 130.92 84.17 121.31 66.45 187.2 54.83 197.77 25 197.79 24.95 197.75 24.9"/><path class="cls-3" d="M33.34,41.59c1.24-.22,6.69-1.46,8.42-2a11.33,11.33,0,0,0,2-.71l2.78,2.28c-.52.52-1.49,1.42-2,2-1.81,2-4.28,5-6,6.87,3.86-1.11,8.62-2.25,12.19-2.88l.61,3.46A44,44,0,0,0,43.86,52c-2.62.86-4.53,3.14-4.11,5.54s2.37,2.87,5,2.73a25.84,25.84,0,0,0,4.47-.73l-.09,4c-7.44,1.65-12.21.17-13.07-4.7a7,7,0,0,1,1.31-5c-2.62.68-5.82,1.7-8.66,2.72l-1-3.48c1.54-.43,3.53-1,5-1.5a81.34,81.34,0,0,0,7.07-8.1c-1.17.3-4.74,1.11-5.9,1.44-.73.19-1.68.48-2.58.73L30.54,42C31.47,41.89,32.33,41.76,33.34,41.59Z"/><path class="cls-3" d="M70.25,55.88a27.79,27.79,0,0,0,2.64-1c3.59-1.55,6-4.74,5.26-9-.71-4-3.43-6.67-7.48-6.66a63.89,63.89,0,0,1-.34,8.25c-.7,6.22-2.61,10.27-5.8,10.83s-6.59-2.52-7.47-7.45C55.88,44.16,60.73,37.33,68.33,36c7.23-1.28,12.71,3,13.83,9.35,1.08,6.14-1.93,11.18-9.11,13.6Zm-3.84-8.46a47.81,47.81,0,0,0,.32-7.36,9.3,9.3,0,0,0-5.92,9.78c.52,3,2,4.2,3,4S65.93,51.59,66.41,47.42Z"/><path class="cls-3" d="M100.94,32.44a17.46,17.46,0,0,1-1.19,2.25,28.32,28.32,0,0,0,13.6,5.46,17.86,17.86,0,0,0-1.55,3.29,38.79,38.79,0,0,1-6.6-2l.23,1.3L93.58,44.79l-.25-1.41a38.64,38.64,0,0,1-5.66,4.37,15.19,15.19,0,0,0-2.37-2.38c4.64-2.71,8.77-7,10.62-10.46l1.71-.3a13.57,13.57,0,0,0-1.7-.68c.2-.22.37-.46.57-.71l-3.6.64a14.18,14.18,0,0,1,1.64,2.24l-2.92,1.58a16.54,16.54,0,0,0-2.24-3.2l-.29.05a24.49,24.49,0,0,1-2,4.07,25.38,25.38,0,0,0-3.26-1.4,19.11,19.11,0,0,0,3.26-8.1l3.52.26c-.13.63-.26,1.3-.45,1.94l6.41-1.13L97,32.53A15.72,15.72,0,0,0,99,27l3.6.19c-.13.66-.29,1.33-.44,2l8.24-1.45.52,2.95-4.78.85a14.72,14.72,0,0,1,1.83,2.08l-3,1.73a20.36,20.36,0,0,0-2.62-3.13ZM91,47.26l17.61-3.11,1.68,9.54-3.52.62-.12-.71L96,55.49l.14.8-3.36.6Zm3.9,2.42.49,2.77,10.72-1.89-.49-2.78Zm7.69-9.43a26.59,26.59,0,0,1-4.38-2.7,23.46,23.46,0,0,1-3.07,4Z"/><path class="cls-3" d="M133.84,33.49c-1.13,1.39-3.43,4.38-4,5.24a3.13,3.13,0,0,1,1.13.05,2.86,2.86,0,0,1,2.15,1.66c.41.75.87,1.82,1.27,2.52a1.89,1.89,0,0,0,2.31,1,31.6,31.6,0,0,0,5.64-1.51l.44,3.88a42.5,42.5,0,0,1-5.66,1.42c-2.77.49-4.38.17-5.43-1.63-.48-.8-1-2.1-1.38-2.8-.54-1-1.23-1.25-1.82-1.14s-1.12.68-1.68,1.51a76.58,76.58,0,0,0-4.18,6.89l-3.91-1.81a20.51,20.51,0,0,0,1.72-2.16c1.24-1.8,6.16-8.79,8.35-12.1-2.06.46-5.49,1.36-7.15,1.81a23.65,23.65,0,0,0-2.45.8l-1.06-4c.69-.06,1.75-.22,2.82-.4,1.39-.25,8-1.72,10.35-2.47a9.13,9.13,0,0,0,1.59-.65l2.59,2.08C134.82,32.34,134.3,33,133.84,33.49ZM133.07,24l.14,3.54c-3.12.28-8.69.62-12.28.64l0-3.49A118.88,118.88,0,0,0,133.07,24Z"/><path class="cls-3" d="M149.81,20.75a24.33,24.33,0,0,0-.25,2.72,79.22,79.22,0,0,0,.6,11.56,15.41,15.41,0,0,0,.45,1.87c.21-1.1.51-2.16.78-3.21l2.06,1.13a68.77,68.77,0,0,0-.87,7.34,5.46,5.46,0,0,0,.09,1.38c.05.3.14.8.24,1.21l-3.27.82a36.29,36.29,0,0,1-2.79-9.13A88.07,88.07,0,0,1,145.91,24a23,23,0,0,0-.24-2.91Zm21.85,18.9a29.57,29.57,0,0,0-4.06-2.3c.31,2.81-.93,5.1-4.89,5.79s-6.86-.55-7.4-3.63,1.63-5.46,5.61-6.16a12.66,12.66,0,0,1,2-.22c-.41-1.79-.87-3.9-1.27-6-.7.15-1.41.27-2.09.39-1.71.31-3.38.54-5.14.73l-.62-3.49a51.14,51.14,0,0,0,5.16-.63c.68-.12,1.39-.25,2.06-.4-.28-1.44-.49-2.62-.63-3.24a16.25,16.25,0,0,0-.52-1.89l4.2-.74a19.05,19.05,0,0,0,.16,1.93c.08.65.21,1.76.44,3.05a44.43,44.43,0,0,0,4.4-1.47l.64,3.63c-1.38.46-2.88.91-4.46,1.31.56,2.82,1.12,5.13,1.59,7.09a18.8,18.8,0,0,1,6.31,2.78Zm-8.1-3.48a9.42,9.42,0,0,0-2.43.09c-1.65.3-2.65,1.17-2.46,2.27s1.48,1.5,3,1.23c1.8-.32,2.26-1.37,1.95-3.08Z"/></g></g></svg>