<svg xmlns="http://www.w3.org/2000/svg" viewBox="0 0 42.38 30.02"><defs><style>.cls-1{fill:none;stroke:#193153;stroke-linejoin:round;stroke-width:1.47px;}.cls-2{fill:#fff;}.cls-3{fill:#193153;}</style></defs><g id="レイヤー_2" data-name="レイヤー 2"><g id="レイヤー_2-2" data-name="レイヤー 2"><polygon class="cls-1" points="3.97 0.73 36.88 0.73 41.64 5.49 41.64 26.05 38.41 29.29 5.49 29.29 0.73 24.53 0.73 3.97 3.97 0.73"/><polygon class="cls-2" points="3.97 0.73 36.88 0.73 41.64 5.49 41.64 26.05 38.41 29.29 5.49 29.29 0.73 24.53 0.73 3.97 3.97 0.73"/><path class="cls-3" d="M14.47,17.41H13.15v2.88H11.09V17.41H6.37v-1.5l4.14-6.72h2.64v6.54h1.32Zm-3.38-1.68V13.46c0-.64.06-1.65.09-2.29h-.06c-.27.58-.57,1.2-.88,1.8L8.51,15.73Z"/><path class="cls-3" d="M18.46,11H15.34V9.19h8.49V11H20.68v9.26H18.46Z"/><path class="cls-3" d="M29,9.19h2.22v9.24h4.5v1.86H29Z"/></g></g></svg>