<svg xmlns="http://www.w3.org/2000/svg" viewBox="0 0 42.38 30.02"><defs><style>.cls-1{fill:none;stroke:#193153;stroke-linejoin:round;stroke-width:1.47px;}.cls-2{fill:#fff;}.cls-3{fill:#193153;}</style></defs><g id="レイヤー_2" data-name="レイヤー 2"><g id="レイヤー_2-2" data-name="レイヤー 2"><polygon class="cls-1" points="3.97 0.73 36.88 0.73 41.64 5.49 41.64 26.05 38.41 29.29 5.49 29.29 0.73 24.53 0.73 3.97 3.97 0.73"/><polygon class="cls-2" points="3.97 0.73 36.88 0.73 41.64 5.49 41.64 26.05 38.41 29.29 5.49 29.29 0.73 24.53 0.73 3.97 3.97 0.73"/><path class="cls-3" d="M6.7,19c3-2.7,4.8-4.78,4.8-6.49a1.59,1.59,0,0,0-1.67-1.8,2.87,2.87,0,0,0-2,1.14l-1.2-1.2A4.5,4.5,0,0,1,10.12,9a3.25,3.25,0,0,1,3.49,3.42c0,2-1.66,4.17-3.69,6.15.56-.06,1.29-.12,1.8-.12h2.42v1.86H6.7Z"/><path class="cls-3" d="M18.46,11H15.34V9.19h8.49V11H20.68v9.26H18.46Z"/><path class="cls-3" d="M29,9.19h2.22v9.24h4.5v1.86H29Z"/></g></g></svg>