<svg xmlns="http://www.w3.org/2000/svg" viewBox="0 0 42.38 30.02"><defs><style>.cls-1{fill:none;stroke:#193153;stroke-linejoin:round;stroke-width:1.47px;}.cls-2{fill:#fff;}.cls-3{fill:#193153;}</style></defs><g id="レイヤー_2" data-name="レイヤー 2"><g id="レイヤー_2-2" data-name="レイヤー 2"><polygon class="cls-1" points="3.97 0.73 36.88 0.73 41.64 5.49 41.64 26.05 38.41 29.29 5.49 29.29 0.73 24.53 0.73 3.97 3.97 0.73"/><polygon class="cls-2" points="3.97 0.73 36.88 0.73 41.64 5.49 41.64 26.05 38.41 29.29 5.49 29.29 0.73 24.53 0.73 3.97 3.97 0.73"/><path class="cls-3" d="M6.44,19l1-1.39A3.54,3.54,0,0,0,10,18.7c1.13,0,1.89-.56,1.89-1.55s-.64-1.77-3.06-1.77V13.79c2,0,2.7-.7,2.7-1.69A1.33,1.33,0,0,0,10,10.7a3.18,3.18,0,0,0-2.1,1L6.77,10.34A4.93,4.93,0,0,1,10.1,9c2.15,0,3.6,1,3.6,2.95a2.63,2.63,0,0,1-1.86,2.54v.07a2.78,2.78,0,0,1,2.22,2.73c0,2-1.78,3.23-3.9,3.23A4.71,4.71,0,0,1,6.44,19Z"/><path class="cls-3" d="M18.46,11H15.34V9.19h8.49V11H20.68v9.26H18.46Z"/><path class="cls-3" d="M29,9.19h2.22v9.24h4.5v1.86H29Z"/></g></g></svg>