<svg xmlns="http://www.w3.org/2000/svg" viewBox="0 0 31.85 30.02"><defs><style>.cls-1{fill:none;stroke:#193153;stroke-linejoin:round;stroke-width:1.47px;}.cls-2{fill:#fff;}.cls-3{fill:#193153;}</style></defs><g id="レイヤー_2" data-name="レイヤー 2"><g id="レイヤー_2-2" data-name="レイヤー 2"><polygon class="cls-1" points="3.97 0.73 26.35 0.73 31.11 5.49 31.11 26.05 27.88 29.29 5.49 29.29 0.73 24.53 0.73 3.97 3.97 0.73"/><polygon class="cls-2" points="3.97 0.73 26.35 0.73 31.11 5.49 31.11 26.05 27.88 29.29 5.49 29.29 0.73 24.53 0.73 3.97 3.97 0.73"/><path class="cls-3" d="M7.46,19c3-2.7,4.8-4.78,4.8-6.49a1.59,1.59,0,0,0-1.66-1.8,2.85,2.85,0,0,0-2,1.14l-1.2-1.2A4.5,4.5,0,0,1,10.88,9a3.26,3.26,0,0,1,3.5,3.42c0,2-1.67,4.17-3.69,6.15.55-.06,1.29-.12,1.8-.12H14.9v1.86H7.46Z"/><path class="cls-3" d="M19.22,11H16.1V9.19h8.49V11H21.44v9.26H19.22Z"/></g></g></svg>