<svg xmlns="http://www.w3.org/2000/svg" viewBox="0 0 31.85 30.02"><defs><style>.cls-1{fill:none;stroke:#193153;stroke-linejoin:round;stroke-width:1.47px;}.cls-2{fill:#fff;}.cls-3{fill:#193153;}</style></defs><g id="レイヤー_2" data-name="レイヤー 2"><g id="レイヤー_2-2" data-name="レイヤー 2"><polygon class="cls-1" points="3.97 0.73 26.35 0.73 31.11 5.49 31.11 26.05 27.88 29.29 5.49 29.29 0.73 24.53 0.73 3.97 3.97 0.73"/><polygon class="cls-2" points="3.97 0.73 26.35 0.73 31.11 5.49 31.11 26.05 27.88 29.29 5.49 29.29 0.73 24.53 0.73 3.97 3.97 0.73"/><path class="cls-3" d="M15.23,17.41H13.91v2.88H11.86V17.41H7.13v-1.5l4.14-6.72h2.64v6.54h1.32Zm-3.37-1.68V13.46c0-.64.06-1.65.09-2.29h-.06c-.27.58-.57,1.2-.89,1.8L9.28,15.73Z"/><path class="cls-3" d="M19.22,11H16.1V9.19h8.49V11H21.44v9.26H19.22Z"/></g></g></svg>