<svg xmlns="http://www.w3.org/2000/svg" viewBox="0 0 31.85 30.02"><defs><style>.cls-1{fill:none;stroke:#193153;stroke-linejoin:round;stroke-width:1.47px;}.cls-2{fill:#fff;}.cls-3{fill:#193153;}</style></defs><g id="レイヤー_2" data-name="レイヤー 2"><g id="レイヤー_2-2" data-name="レイヤー 2"><polygon class="cls-1" points="3.97 0.73 26.35 0.73 31.11 5.49 31.11 26.05 27.88 29.29 5.49 29.29 0.73 24.53 0.73 3.97 3.97 0.73"/><polygon class="cls-2" points="3.97 0.73 26.35 0.73 31.11 5.49 31.11 26.05 27.88 29.29 5.49 29.29 0.73 24.53 0.73 3.97 3.97 0.73"/><path class="cls-3" d="M7.21,19l1-1.39a3.55,3.55,0,0,0,2.48,1.14c1.12,0,1.89-.56,1.89-1.55S12,15.38,9.55,15.38V13.79c2,0,2.7-.7,2.7-1.69a1.33,1.33,0,0,0-1.49-1.4,3.2,3.2,0,0,0-2.1,1L7.54,10.34A4.91,4.91,0,0,1,10.87,9c2.14,0,3.6,1,3.6,2.95a2.65,2.65,0,0,1-1.86,2.54v.07a2.78,2.78,0,0,1,2.22,2.73c0,2-1.79,3.23-3.9,3.23A4.7,4.7,0,0,1,7.21,19Z"/><path class="cls-3" d="M19.22,11H16.1V9.19h8.49V11H21.44v9.26H19.22Z"/></g></g></svg>