<svg xmlns="http://www.w3.org/2000/svg" viewBox="0 0 99.64 86.35"><defs><style>.cls-1{fill:#10314e;fill-rule:evenodd;}.cls-2{fill:#fff;}</style></defs><g id="レイヤー_2" data-name="レイヤー 2"><g id="レイヤー_2-2" data-name="レイヤー 2"><path class="cls-1" d="M99.6,43.06,75.14,0H24.64L0,43.06l0,.08,0,.08,24.6,43.13h50.5L99.6,43.22l0-.08Z"/><path class="cls-2" d="M88.91,38.25c-1.18-.13-3.5.55-5.17,1C77.24,40.75,72,41.58,66.19,43c-3.13.78-6.31,1.66-9.82,2.35a16.55,16.55,0,0,1,2-1.67,35.63,35.63,0,0,0,6.52-6.92,5.85,5.85,0,0,1,.36-.64A2.93,2.93,0,0,1,66.43,36a24.21,24.21,0,0,0,4.11-1,8.22,8.22,0,0,0,2.36-1.41,8.41,8.41,0,0,0,1.88-1.43A.77.77,0,0,0,74.33,31a4.27,4.27,0,0,0-1.62.05c-1.15.17-2.3.32-3.44.51-.58.09-1.18.09-1.71.21a3.8,3.8,0,0,0-.57.14c-.26.17-.21-.48-.16-.63a1.88,1.88,0,0,0,.11-1c-.25-.77-1-.45-1.74-.21a7.45,7.45,0,0,0,.31-2.1c0-.42.06-.87.1-1.3.09-1,0-2,0-3s-.07-1.88-.08-2.8a7.86,7.86,0,0,0,0-2c-.1-.35-.17-.53-.42-.58-.8-.16-2.46,1.19-3,1.53s-.61.35-.77.87-.23.86-.34,1.3-.13.81-.25,1.25c-.47,1.74-.7,3.36-1.12,5.1-.11.45-.21.88-.33,1.32s-.32.87-.41,1.29-.11.81-.72.65a23.56,23.56,0,0,0-2.52-.38c-.7-.1-1.26-.39-1.83-.16a3.17,3.17,0,0,0-.6.39c-.47.33-.58.37-.4.87a4,4,0,0,0,1.76,1.88c.08,0,.93.83.92,1a9,9,0,0,1-.69.72c-2.77,2.2-5.63,4.09-8.52,6.1-.38.26-1,.62-1.33.9a19.3,19.3,0,0,1-3,1.63,16.76,16.76,0,0,1-1.73-.25c-1.32-.29-2-.27-3.36-.58-2.81-.65-3.45-.87-6.35-1.46-.54-.11-2.13-.56-2.62-.67-1.62-.34-1.95-.42-3.62-.84-2.4-.61-4.74-1.26-7.09-2C15.17,38,15.25,39,15.7,40.5s1.45,2,2.71,3a35.69,35.69,0,0,0,5.07,3.06c.79.42,2.5,1.21,3.23,1.73.15.11,1.21.37,1.22.53s-.45.43-.57.54-.33.4-.52.56c-.51.43-1.2.65-1.5,1.05a3.71,3.71,0,0,0-.29,1.9,4.38,4.38,0,0,0,.77,1.48c.06.09.31.24.3.32s-.91.9-1.07,1a7.44,7.44,0,0,0-1.49,1.72c-1,1.73-.89,3.42-1.74,5.15-.23.47-.46,1-.68,1.48a4,4,0,0,0-.34,2.86c.27.87,1,1,1.6,1.17a7.22,7.22,0,0,0,3.94-.55,38.39,38.39,0,0,0,8.28-4.73c.62-.47,1.25-.89,1.87-1.36a31.75,31.75,0,0,0,3.13-2.6c.32-.31.74-.57,1.09-.86.64-.52,1.16-1,1.75-1.52a2,2,0,0,1,.36-.25,13.44,13.44,0,0,1,2-.45c1.05-.29,2.1-.57,3.18-.77a8.4,8.4,0,0,0,2.78-.83,3.08,3.08,0,0,0-.55,3,4.83,4.83,0,0,0,1.28,2.14c1.55,1.18,3.24.11,4.44-1,.56-.53,1.2-1,1.74-1.51a8.06,8.06,0,0,0,1.89-2.42c.07-.19,0-.36.14-.53.31-.5.92-.84,1.16-1.38.13-.29.31-.47.2-.82a2.54,2.54,0,0,0-.71-.61A10.31,10.31,0,0,1,62,50.56c2.46-.81,4.94-1.55,7.42-2.3,5-1.5,9.56-2.59,14.43-4.38,1.78-.65,3.38-1.19,4.6-2.7C89,40.54,90.66,38.43,88.91,38.25Zm-30.77,7.8a6.09,6.09,0,0,1,1.33-.5c1.19-.36,2.45-.43,3.64-.85.74-.27,4.93-1.17,5.72-1.36,4.09-.94,5.2-1.11,9.25-2,.49-.11,1-.2,1.47-.29a23.19,23.19,0,0,1,2.31-.51c-1.53,1.42-4.18,1.66-6.12,2.16-4.64,1.2-8.13,1.94-11.41,2.74-2.25.55-4.36,1.23-6.87,1.71C57.38,46.79,58,46.36,58.14,46.05Zm9.72-13.6c.53-.09,1.08-.12,1.6-.19.85-.11,1.67-.36,2.51-.45a7.88,7.88,0,0,1,1.53-.16l-1,.88a8.9,8.9,0,0,1-1.76,1.09,14.52,14.52,0,0,1-4.15,1.08c-1.12.2-2.15.48-3.2.7a6.07,6.07,0,0,1,1.53-1.34,13.43,13.43,0,0,1,1.81-1.23A3.73,3.73,0,0,1,67.86,32.45Zm-14,0c-.16-.12-.29-.23-.3-.28s.18-.39.43-.52c.49-.25,1.53.1,2.07.19s.79.25,1.19.35c.16,0,.78,0,.86.16s-.16.5-.21.73c0,.07-.17.19-.25.3a2.73,2.73,0,0,1-.6.57c-.21.13-.66.57-.82.58s-.21-.2-.34-.31c-.45-.38-.92-.88-1.36-1.27C54.49,32.94,54.14,32.71,53.88,32.5ZM26.31,42.25a3.54,3.54,0,0,1,1.13.14c.65.11,1.4.3,2,.46,2.59.61,4.3.93,7.19,1.64.65.16,1.4.25,2,.35.16,0,.3.09.44.1a5.27,5.27,0,0,1,1.75.31c-.19.11-.89.67-1,.57a10.26,10.26,0,0,1-1.13-.14,16.47,16.47,0,0,0-1.87-.39c-2.26-.34-3.79-.89-6-1.41-.58-.14-1.16-.3-1.74-.43a10.9,10.9,0,0,1-2.54-.82C26.43,42.5,26.27,42.25,26.31,42.25Zm.17,4.69c-.93-.42-1.87-.83-2.78-1.29l-1.39-.72c-.38-.18-.6-.38-1-.59-.54-.31-1.15-.65-1.78-1.05s-1.18-1-1.63-1.22a3,3,0,0,1-1.67-2.73A9.74,9.74,0,0,1,19,40c1.31.41,2.65.76,4,1.15A9.26,9.26,0,0,1,25.6,42a3.81,3.81,0,0,1,.54.79,2,2,0,0,0,1.29.81c3.71,1,5.82,1.48,9.73,2.45a5.6,5.6,0,0,0,1,.24c.32,0,.7.12,1,.16-2.36,1.4-3.1,1.72-5.17,2.93-.2.12-.84.56-.83.57-.42-.28-.67-.21-1.09-.44-.58-.31-1.22-.48-1.82-.74a5.45,5.45,0,0,0-.53-.29,4.19,4.19,0,0,1-.69-.29C28.17,47.72,27.33,47.33,26.48,46.94ZM29,49.13c.05.22-.25.3-.44.4a4.65,4.65,0,0,1-.93.52A2.53,2.53,0,0,1,29,49.13ZM25.82,53a2.11,2.11,0,0,1,0-1.36c.08-.25.46-.52.66-.34a2.15,2.15,0,0,0,.51,0c.52-.11.68-.45,1-.64a5.94,5.94,0,0,0,.89-.61c.33-.24.6-.57.89-.61a7.36,7.36,0,0,1,.73.21c.25.09.46.25.69.35l.62.29s.3,0,.31.15-.31.23-.49.35a32,32,0,0,0-3.61,2.56,2.82,2.82,0,0,0-.3-.92c-.26-.41-.89-.79-1.22-.68s-.54,1.25-.11,1.35c.14,0,.11-.33.37-.29s.21.73.58,1.06c-.18.13-.38.33-.56.3A2.33,2.33,0,0,1,25.82,53ZM23.42,60c0-.05.58-.26.7-.15s-.07.87-.15.94-.71.32-.79.24A2.9,2.9,0,0,1,23.42,60Zm17.24-3.12c-1.29,1-2.76,2.09-4.07,3.11-.46.36-.92.78-1.41,1.09-1.36.86-2.45,1.88-3.93,2.73a37.13,37.13,0,0,1-3.78,2.15,14.57,14.57,0,0,1-3.09,1c-.59.11-2,.36-2.47-.19-.94-1.11-.09-2.24.4-3.28.06-.14.17-.48.27-.67s.27-.95.34-1a6.4,6.4,0,0,1,.85-.2,3.32,3.32,0,0,0,2.39-1.74,1,1,0,0,0,.08-.86c-.47-.8-1.72.18-2.69.37.27-1.62,1.75-2.89,2.93-3.85S31,52.16,33,50.91c4.83-3,5.94-3.44,9.53-5.75a102.87,102.87,0,0,0,8.59-5.68c1.64-1.25,3.36-2.36,5-3.66A5.9,5.9,0,0,1,57.2,35c.45-.19.13-.28.37,0,.36.47,1.08,0,1.72-.41.4-.27.85-.62,1.3-.91.95-.64,1.65-1.12,1.83-1.95-.93.6-2.24,1.2-3.39,2,.21-.72.52-1.45.73-2.21s.37-1.46.6-2.24c.28-1,.34-2,.55-3,.29-1.48.71-3,1.09-4.54a3.39,3.39,0,0,1,.59-1.41,3.23,3.23,0,0,1,.65-.3,9.38,9.38,0,0,1,1.37-.84c0,.82,0,1.72,0,2.62s.06,1.55,0,2.33,0,1.66-.14,2.57-.1,2.11-.26,3.22c0,.2,0,.72,0,.76s-.36.14-.47.29c-.32.41.22.89.65.76s1-1.13,1.79-1.11a2.18,2.18,0,0,1-.08.9,2.51,2.51,0,0,1-.15.86,6.74,6.74,0,0,1-1.1.74A17.45,17.45,0,0,0,62.27,35c-.55.57-.54,1.13.39,1.34.51.12,1.15-.15,1.52.08-.87,1-1.59,2.14-2.61,3.13-.5.49-1,.95-1.59,1.45-1.56,1.44-3.19,2.76-4.81,4.12-.2.17-.37.37-.57.54a2.46,2.46,0,0,1-.57.38c-.14.05-.25,0-.4,0a18.28,18.28,0,0,0-5.47,2.71A34.07,34.07,0,0,0,43.76,52c-.73.65-1.5,1.29-2.15,1.94a9.23,9.23,0,0,0-1,1,.82.82,0,0,0,.84,1.22A3.65,3.65,0,0,1,40.66,56.83Zm-16,3.49c0-.17,0-.71.2-.83s.8-.29.81-.12a1.13,1.13,0,0,1-.09.51C25.3,60.26,24.53,61,24.62,60.32ZM58.9,54.09A7.29,7.29,0,0,1,57,56.45a25.19,25.19,0,0,1-2.24,1.73c-2,1.6-3.92-.13-3.86-2.47a3.56,3.56,0,0,1,.09-.39c0-.3,0-.4.22-.61a5,5,0,0,1,.8-.65c.08-.05.17-.17.27-.17s.13.23.22.3a1.45,1.45,0,0,0,.84,0,6.5,6.5,0,0,0,1.45-.92c.25-.16.49-.24.68-.39s.21-.25.36-.32a1.42,1.42,0,0,1,.46-.1A10.53,10.53,0,0,1,58,51.89C58.53,52,59,53.66,58.9,54.09Zm-6-.7c.26-.32,1.14-.43,1.48-.61a6.35,6.35,0,0,1-.85.7C53.22,53.67,52.55,53.81,52.91,53.39Zm6.67-.71s-.13-.37-.12-.35c-.15-.23-.24-.48-.47-.6l.67-.24a1.31,1.31,0,0,1,.34.24C60.16,51.94,59.84,52.73,59.58,52.68Zm27.93-12.2a16.41,16.41,0,0,1-3.76,2.37c-1.75.68-3.52,1.23-5.3,1.79-4.47,1.43-9,2.66-13.55,4-2.49.73-4.89,1.69-7.37,2.42l-2.07.61c-1.37.41-3,.87-4.49,1.43a31.07,31.07,0,0,1-5,1.37c-.86.17-1.67.43-2.46.52a5.39,5.39,0,0,0-1.65.15,6.9,6.9,0,0,1,1.71-1.7c.42-.38.81-.89,1.29-1.27.29-.23.63-.42.94-.67a37.48,37.48,0,0,1,6.13-3.88,7.31,7.31,0,0,1,.9-.42c.26-.09.56-.27.69-.29.28,0,.54.28.82.25a4.2,4.2,0,0,0,.76-.31,18.77,18.77,0,0,1,2.3-.69c.11.42-1.06,1-.89,1.44.07.22.61.23.8.22a13.47,13.47,0,0,0,2-.4c4.56-1.12,8.44-2.15,11.78-3,2.25-.6,4.48-1,6.75-1.57a18.15,18.15,0,0,0,3.68-1.25A5.78,5.78,0,0,0,82.53,41c.31-.23.57-.46.83-.65a4,4,0,0,1,1-.3c.81-.19,1.68-.38,2.68-.55.3,0,.84-.18.9-.1C88.14,39.69,87.93,40.07,87.51,40.48Z"/><path class="cls-2" d="M57.6,39.8c.19.47.25.66.64.59s.34-.19.53-.33.69-.37.68-.74a3.11,3.11,0,0,0-.48-1.1c-.15-.32-.2-.69-.57-.81s-.53.1-.82.35-.58.31-.62.58S57.47,39.49,57.6,39.8Zm-.14-1.44c.1-.21.63-.8.95-.49s.75,1.15.55,1.52a2,2,0,0,1-.79.57c-.21-.08-.37-.58-.51-.91S57.39,38.49,57.46,38.36Z"/><path class="cls-2" d="M58.59,38.94a1.75,1.75,0,0,0-.31-.83c-.11-.06-.14,0-.3.1a.78.78,0,0,0-.26.2,2.2,2.2,0,0,0,.35.74A.46.46,0,0,0,58.59,38.94Z"/><path class="cls-2" d="M56.36,40.83A1.94,1.94,0,0,0,56,40c-.11-.09-.29,0-.41,0s-.28.2-.26.36a2.3,2.3,0,0,0,.47.76C55.9,41.24,56.34,41,56.36,40.83Z"/><path class="cls-2" d="M45.59,48.39a1.82,1.82,0,0,0-.37-.8c-.11-.1-.29,0-.41,0s-.26.19-.24.35a2.43,2.43,0,0,0,.41.8C45.11,48.82,45.57,48.59,45.59,48.39Z"/><path class="cls-2" d="M52.1,43.87a2.1,2.1,0,0,0-.4-.86c-.11-.1-.29,0-.41,0a.4.4,0,0,0-.23.34,2.6,2.6,0,0,0,.46.83C51.65,44.28,52.08,44.07,52.1,43.87Z"/><path class="cls-2" d="M44.54,49.16a2.17,2.17,0,0,0-.4-.86c-.11-.1-.29,0-.41,0a.37.37,0,0,0-.23.34,2.71,2.71,0,0,0,.46.83C44.09,49.57,44.52,49.36,44.54,49.16Z"/><path class="cls-2" d="M55.36,41.43c-.11-.45-.34-1.06-.89-.56-.18.15-.21.17-.17.31a7.77,7.77,0,0,0,.36.77C54.85,42.1,55.43,41.72,55.36,41.43Z"/><path class="cls-2" d="M54.33,42.33a1.79,1.79,0,0,0-.45-.95.53.53,0,0,0-.57.19c-.05.06-.11.12-.1.2s.34.95.48,1A.91.91,0,0,0,54.33,42.33Z"/><path class="cls-2" d="M53,43.38c.33-.25.27-.34.09-.71s-.31-.76-.81-.33c0,0-.19.08-.21.14a2.67,2.67,0,0,0,.51,1.09C52.65,43.62,52.81,43.48,53,43.38Z"/><path class="cls-2" d="M50.51,45c.07,0,.5-.25.55-.41a1.48,1.48,0,0,0,0-.24c-.22-.61-.41-.92-.83-.62,0,0-.18.08-.21.13S50.33,45,50.51,45Z"/><path class="cls-2" d="M49.75,45.53c.26-.23.17-.35,0-.67s-.18-.53-.53-.38a1.93,1.93,0,0,0-.36.28c-.09.14.32.89.48,1S49.65,45.62,49.75,45.53Z"/><path class="cls-2" d="M57.13,40.35c.26-.22.16-.34,0-.66s-.17-.54-.53-.39a2,2,0,0,0-.35.28c-.09.14.31.89.47,1S57,40.45,57.13,40.35Z"/><path class="cls-2" d="M48.24,46.55c.18,0,.58-.33.58-.51a3.86,3.86,0,0,0-.45-.88c-.09,0-.29.12-.42.2s-.25.14-.27.2A1.43,1.43,0,0,0,48.24,46.55Z"/><path class="cls-2" d="M47.75,47c0-.19-.24-.55-.33-.7s-.18-.41-.55-.18c-.17.11-.23.17-.24.23a3,3,0,0,0,.41.93C47.17,47.45,47.7,47.23,47.75,47Z"/><path class="cls-2" d="M46.66,47.61a3.2,3.2,0,0,0-.47-.92,1,1,0,0,0-.56.36,1.71,1.71,0,0,0,.46,1C46.24,48.1,46.68,47.81,46.66,47.61Z"/><path class="cls-2" d="M43.49,49.88a2.45,2.45,0,0,0-.32-.59c-.2-.35-.19-.39-.52-.19-.1.06-.25.1-.28.25a2.25,2.25,0,0,0,.55,1C43.06,50.36,43.48,50.09,43.49,49.88Z"/><path class="cls-2" d="M37.38,51.77a5.2,5.2,0,0,0-.78.6c-.09.19.21.61.32.87s.17.43.29.69c.26.58.4,1.07.83.94.09,0,.36-.31.6-.48.44-.31.92-.53.59-.94l0-.16c-.06-.16-.08-.16-.13-.32a6.93,6.93,0,0,0-.57-1.32h0C38.32,51.07,37.7,51.54,37.38,51.77Zm.42,2.51c0-.43-.76-1.39-.67-1.77a3,3,0,0,1,1.1-.67,7,7,0,0,1,.55,1.21c0,.15.18.41.14.47A1.89,1.89,0,0,1,37.8,54.28Z"/><path class="cls-2" d="M42.42,50.67a2.28,2.28,0,0,0-.42-1c-.1-.07-.17,0-.25,0-.55.2-.37.69,0,1.16C41.87,51.13,42.36,51,42.42,50.67Z"/><path class="cls-2" d="M41.33,51.38a1.9,1.9,0,0,0-.41-.91c-.13-.08-.23.09-.32.13a1.6,1.6,0,0,0-.34.2c-.1.16.31,1,.43,1.07S41.31,51.63,41.33,51.38Z"/><path class="cls-2" d="M40.22,52.36a2.58,2.58,0,0,0-.43-1c-.12-.08-.22,0-.29.06s-.26.09-.29.21a2.72,2.72,0,0,0,.46,1.08C39.84,52.78,40.19,52.57,40.22,52.36Z"/><path class="cls-2" d="M37.9,52.23a1.3,1.3,0,0,0-.5.35c0,.13.2.42.24.52.14.28.12.42.32.43s.55-.4.56-.49a1.82,1.82,0,0,0-.24-.51C38.07,52.14,38.1,52.18,37.9,52.23Z"/><path class="cls-2" d="M36.19,53.72c-.07.06-.21.11-.21.22A3.82,3.82,0,0,0,36.53,55c.13,0,.58-.23.56-.47a2.63,2.63,0,0,0-.45-.95C36.52,53.51,36.32,53.62,36.19,53.72Z"/><path class="cls-2" d="M30.62,57c-.22-.29-.47-.18-.76,0a4.17,4.17,0,0,0-1.25.82c-.14.26,0,.73.24,1.18a10.5,10.5,0,0,0,.67,1.45c.36.39.88,0,1.33-.31s.86-.42.74-.93a6.59,6.59,0,0,0-.45-1.05A7,7,0,0,0,30.62,57Zm.4,2.28s-.76.64-1,.6-.37-.65-.54-1-.42-.77-.29-1a2.91,2.91,0,0,1,.84-.51c.14,0,.16-.13.34.15A4.83,4.83,0,0,1,31,59.28Z"/><path class="cls-2" d="M35.18,54.4c-.13.08-.3.17-.31.26a3.24,3.24,0,0,0,.55,1.15c.26,0,.71-.39.7-.6a2.12,2.12,0,0,0-.27-.5C35.57,54.24,35.61,54.13,35.18,54.4Z"/><path class="cls-2" d="M32.75,56c-.08.05-.3.14-.35.26a5.66,5.66,0,0,0,.6,1.21c.22.09.77-.27.74-.59a6.26,6.26,0,0,0-.55-1C33.06,55.8,33,55.84,32.75,56Z"/><path class="cls-2" d="M31.52,56.87c-.33.19-.23.31-.11.54s.32.8.44.85.54-.23.58-.29.07-.09.08-.13c.05-.26-.18-.58-.3-.8C32,56.6,32,56.59,31.52,56.87Z"/><path class="cls-2" d="M33.9,55.25c-.33.19-.23.3-.1.54a4,4,0,0,0,.43.85c.19.09.54-.23.59-.3s.07-.08.08-.13a1.53,1.53,0,0,0-.29-.8C34.36,55,34.39,55,33.9,55.25Z"/><path class="cls-2" d="M30.06,57.81a1.4,1.4,0,0,0-.49.3c-.1.22.29.88.46.89a1.64,1.64,0,0,0,.5-.35,1.22,1.22,0,0,0-.28-.93C30.18,57.68,30.12,57.79,30.06,57.81Z"/><path class="cls-2" d="M53,55a2.37,2.37,0,0,0-.43-.19.79.79,0,0,0-1.25.5,5.14,5.14,0,0,0,.81,2.76,2.3,2.3,0,0,0,1,.61,1.24,1.24,0,0,0,1.29-1.35A3.46,3.46,0,0,0,54,55.86,2.38,2.38,0,0,0,53,55Zm.48,3.18c-1,.18-1.9-1.88-1.34-2.62.1-.14.56.65.7.92A6.54,6.54,0,0,1,53.52,58.18Z"/></g></g></svg>