<svg xmlns="http://www.w3.org/2000/svg" viewBox="0 0 99.64 86.35"><defs><style>.cls-1{fill:#10314e;fill-rule:evenodd;}.cls-2{fill:#fff;}</style></defs><g id="レイヤー_2" data-name="レイヤー 2"><g id="レイヤー_2-2" data-name="レイヤー 2"><path class="cls-1" d="M99.6,43.06,75.14,0H24.64L0,43.06l0,.08,0,.08,24.6,43.13h50.5L99.6,43.22l0-.08Z"/><path class="cls-2" d="M63.9,56a.78.78,0,0,0,.77-.77V51.48a.78.78,0,0,0-.77-.77H37.46a.77.77,0,0,0-.77.77v3.74a.77.77,0,0,0,.77.77Zm-9.61-1.54H51.45v-2.2h2.84Zm1.54-2.2h2.84v2.2H55.83Zm-5.92,2.2H47.07v-2.2h2.84Zm-4.38,0H42.69v-2.2h2.84Zm17.6,0H60.21v-2.2h2.92Zm-24.9-2.2h2.92v2.2H38.23Z"/><path class="cls-2" d="M75.36,64.52H73.14V35.22h.32a.77.77,0,0,0,0-1.54h-.32V31h.32a.77.77,0,0,0,0-1.54H63.67a.77.77,0,0,0,0,1.54H64v2.73h-.33a.77.77,0,1,0,0,1.54H64v3.36l-5.31-5.3a2.53,2.53,0,0,0-1.81-.76H53.49V26.37h.44a.78.78,0,1,0,0-1.55h-.44v-3h.44a.78.78,0,1,0,0-1.55H39.37a.78.78,0,0,0,0,1.55h.44v3h-.44a.78.78,0,0,0,0,1.55h.44v3.45a.78.78,0,0,0,1.55,0V26.37H52V47.25H41.36V32.91a.78.78,0,0,0-1.55,0V47.25h-3V43.76h.37a.77.77,0,1,0,0-1.54h-.37V42a.77.77,0,0,0-1.54,0v.26H35a.77.77,0,1,0,0,1.54h.37v3.49H33.65a1.39,1.39,0,0,0-1.39,1.39v5H30.74a5.32,5.32,0,0,0-4.09,1.92.77.77,0,0,0,1.18,1,3.79,3.79,0,0,1,2.91-1.36h1.52v2.05H30.74A1.74,1.74,0,0,0,29,59v5.5H27V59a.77.77,0,1,0-1.54,0v5.49H24.28a.77.77,0,0,0,0,1.54H75.36a.77.77,0,1,0,0-1.54Zm-34-39.7v-3H52v3ZM65.54,31H71.6v2.73H65.54Zm-8.66,3.11a1,1,0,0,1,.72.31L64,40.76v2.91l-7.32-7.32a.76.76,0,0,0-.55-.23H53.49V34.06ZM30.55,59a.19.19,0,0,1,.19-.2h1.52v5.7H30.55ZM33.8,48.79H57.19a.77.77,0,1,0,0-1.54h-3.7V37.66h2.32L64,45.85v1.4H60.27a.77.77,0,1,0,0,1.54h7.28V64.52H57.13V59.17a.76.76,0,0,0-.77-.77H45a.77.77,0,0,0-.77.77v5.35H33.8V48.79Zm12,15.73V59.94h9.83v4.58Zm23.33,0V48.64a1.39,1.39,0,0,0-1.39-1.39H65.54v-12H71.6v29.3Z"/></g></g></svg>